<svg width="56" height="56" viewBox="0 0 56 56" fill="none" xmlns="http://www.w3.org/2000/svg">
<g clip-path="url(#clip0)">
<path d="M51.9998 4.80495C52.0002 4.49404 51.8205 4.21125 51.5393 4.07923C51.2577 3.9476 50.9257 3.99056 50.687 4.18976C50.4796 4.36319 45.6003 8.5527 45.6003 19.2038C45.641 19.7944 45.8722 20.3557 46.2593 20.8037L46.1441 20.8428C45.8179 20.9529 45.5992 21.2595 45.6003 21.6036V48.8015C45.6003 50.5685 47.0327 52.0012 48.8001 52.0012C50.5671 52.0012 51.9998 50.5685 51.9998 48.8015V20.0038C51.9998 19.8139 51.9323 19.63 51.8092 19.4854C51.9291 19.137 51.9932 18.7722 51.9998 18.4039V4.80495ZM50.4 7.00087V18.4039C50.398 18.6652 50.3437 18.9234 50.2398 19.1628L50.0797 19.5327L48.7657 19.9702L47.8623 20.2701C47.2346 19.5054 47.2002 19.2038 47.2002 19.2038C47.2002 12.8434 49.0673 8.96439 50.4 7.00087ZM48.8001 50.4014C47.9166 50.4014 47.2002 49.685 47.2002 48.8015V22.1778L47.8111 21.9716C47.8302 21.9669 47.8498 21.961 47.8681 21.9548L50.4 21.113V48.8015C50.4 49.685 49.6836 50.4014 48.8001 50.4014Z" fill="#5B5B5B"/>
<path d="M22.6111 11.7361C24.0411 13.5825 26.5932 14.1301 28.6548 13.0333C30.7164 11.9365 31.6885 9.51444 30.9566 7.29665C30.225 5.07886 28.0021 3.71099 25.6925 4.05667C23.3829 4.40235 21.6585 6.36157 21.6081 8.69615L20.257 15.2031H19.2028C18.761 15.2031 18.4029 15.5612 18.4029 16.003C18.4029 16.4448 18.761 16.8029 19.2028 16.8029H19.9227L17.203 29.9218L14.9734 16.8029H16.0031C16.4448 16.8029 16.803 16.4448 16.803 16.003C16.803 15.5612 16.4448 15.2031 16.0031 15.2031H14.7016L13.5982 8.70513C13.5501 6.3811 11.8436 4.42539 9.54731 4.06331C7.25101 3.70123 5.0254 5.03667 4.26452 7.23337C3.50364 9.43008 4.42623 11.8561 6.45458 12.9919C8.48255 14.1278 11.0335 13.6469 12.5088 11.8506L16.3085 34.227L12.8201 51.0401C12.7303 51.4729 13.0084 51.8959 13.4408 51.9857C13.4943 51.9959 13.5486 52.0006 13.6032 52.0002C13.9825 51.9994 14.3094 51.7322 14.3856 51.36L17.0428 38.561L19.2122 51.3369C19.279 51.7209 19.6129 52.0013 20.0027 52.0002C20.0477 51.9998 20.0926 51.9963 20.1371 51.9888C20.5726 51.915 20.866 51.5022 20.7921 51.0666L17.9373 34.2559L22.6111 11.7361ZM26.4022 5.60381C28.1693 5.60381 29.602 7.03651 29.602 8.80356C29.602 10.5706 28.1693 12.0033 26.4022 12.0033C24.6348 12.0033 23.2025 10.5706 23.2025 8.80356C23.2025 7.03651 24.6348 5.60381 26.4022 5.60381ZM8.80362 12.0033C7.03618 12.0033 5.60387 10.5706 5.60387 8.80356C5.60387 7.03651 7.03618 5.60381 8.80362 5.60381C10.5707 5.60381 12.0034 7.03651 12.0034 8.80356C12.0034 10.5706 10.5707 12.0033 8.80362 12.0033Z" fill="#5B5B5B"/>
<path d="M39.201 30.3971V24.8034C39.201 24.789 39.1936 24.7768 39.1928 24.7624C39.192 24.7483 39.1986 24.737 39.1928 24.7233L37.5929 8.7246C37.5519 8.31564 37.2078 8.00473 36.7969 8.00473C36.3864 8.00473 36.0423 8.31564 36.0012 8.7246L34.4014 24.7233C34.4014 24.737 34.4061 24.7499 34.4014 24.7624C34.3963 24.7753 34.4014 24.789 34.4014 24.8034V30.3452C34.4014 30.3635 34.3908 30.3787 34.39 30.3971C34.2611 32.2973 33.4831 34.0956 32.1863 35.4905C29.8041 38.3519 29.044 42.0618 29.9873 46.2209C30.4204 48.1199 31.1403 49.9421 32.1223 51.6243C32.3558 52.0001 32.8495 52.1149 33.2249 51.8817C33.6003 51.6482 33.7155 51.1545 33.4823 50.7787C33.4307 50.699 28.4362 42.4962 33.4182 36.5146C34.5557 35.2202 35.3681 33.6734 35.7892 32.0028H37.8019C38.2241 33.6734 39.0377 35.2202 40.1751 36.5146C45.1579 42.4973 40.1751 50.6967 40.1208 50.7787C39.8873 51.1545 40.0025 51.6482 40.3779 51.8817C40.7536 52.1149 41.2473 52.0001 41.4805 51.6243C42.4613 49.9417 43.1792 48.1191 43.61 46.2201C44.551 42.0603 43.7877 38.3519 41.4055 35.4905C40.1091 34.0953 39.3311 32.2973 39.201 30.3971ZM36.8012 16.8439L37.521 24.0035H36.0891L36.8012 16.8439ZM36.0012 25.6033H37.6011V30.403H36.0012V25.6033Z" fill="#5B5B5B"/>
<path d="M25.3682 17.0384C25.0542 16.7353 24.5554 16.7396 24.2468 17.0481C23.9383 17.3567 23.934 17.8555 24.2371 18.1695L26.0713 20.0038L24.2371 21.838C24.0871 21.988 24.0027 22.1915 24.0027 22.4036V26.4033H23.2028C22.761 26.4033 22.4028 26.7614 22.4028 27.2032V44.8018C22.4028 45.2436 22.761 45.6017 23.2028 45.6017H24.0027V49.6014C24.0027 49.8135 24.0871 50.017 24.2371 50.167L25.8369 51.7669C26.1506 52.07 26.6498 52.0657 26.9583 51.7571C27.2669 51.4485 27.2712 50.9494 26.9681 50.6357L25.6026 49.2702V45.6017H26.4025C26.8443 45.6017 27.2025 45.2436 27.2025 44.8018V27.2032C27.2025 26.7614 26.8443 26.4033 26.4025 26.4033H25.6026V22.7348L27.768 20.5693C28.0801 20.2569 28.0801 19.7507 27.768 19.4382L25.3682 17.0384ZM25.6026 44.0019H24.0027V28.0031H25.6026V44.0019Z" fill="#5B5B5B"/>
</g>
<defs>
<clipPath id="clip0">
<rect width="48" height="48" fill="white" transform="translate(4 4)"/>
</clipPath>
</defs>
</svg>
