<svg width="56" height="56" viewBox="0 0 56 56" fill="none" xmlns="http://www.w3.org/2000/svg">
<path fill-rule="evenodd" clip-rule="evenodd" d="M35.9447 18.5715H47.9862C50.202 18.5739 51.9973 20.3695 52 22.5854V43.4573C52 43.9006 51.6406 44.2601 51.1972 44.2601H48.8924C47.5777 47.6017 44.3522 49.7983 40.7613 49.7983C37.1704 49.7983 33.9448 47.6017 32.6301 44.2601H23.2039C21.8892 47.6017 18.6636 49.7983 15.0727 49.7983C11.4818 49.7983 8.25626 47.6017 6.94157 44.2601H4.63675C4.19343 44.2601 3.83398 43.9006 3.83398 43.4573V34.6269C3.83751 31.5248 6.35125 29.011 9.45335 29.0075H11.8617V22.5854C11.8644 20.3695 13.6596 18.5739 15.8755 18.5715H28.7198V16.115C26.7458 17.1161 24.359 16.7971 22.717 15.313C21.0747 13.8286 20.5169 11.4862 21.3142 9.42125C22.111 7.35632 24.098 5.99616 26.3115 6.00008C27.9883 5.99577 29.5676 6.78834 30.566 8.13556H34.0985C35.0972 6.78873 36.6761 5.99616 38.353 6.00086C40.5641 5.99969 42.5475 7.36024 43.3428 9.42321C44.1381 11.4862 43.5811 13.8259 41.9415 15.3095C40.3019 16.7927 37.9179 17.1134 35.9447 16.1158V18.5715ZM29.8298 13.8161C30.1297 13.9403 30.3253 14.2331 30.3253 14.5577V18.5715H34.3391V14.5577C34.3391 14.2331 34.5347 13.9403 34.8346 13.8161C35.1344 13.6918 35.4798 13.7604 35.7095 13.9901C36.9066 15.1884 38.7594 15.4334 40.2262 14.5863C41.6934 13.7396 42.4083 12.013 41.9693 10.3769C41.5303 8.74078 40.0467 7.60404 38.353 7.60561C37.0649 7.59895 35.8663 8.26374 35.1901 9.36049C35.1713 9.38362 35.1513 9.40517 35.1297 9.42556C35.0968 9.46907 35.0596 9.50866 35.0184 9.54433C34.9396 9.60783 34.851 9.65722 34.7558 9.69132C34.7033 9.707 34.6496 9.71797 34.5951 9.72346C34.5665 9.73091 34.5371 9.73679 34.5077 9.7411H30.1567C30.1273 9.73679 30.0979 9.73091 30.0693 9.72346C30.0148 9.71797 29.9611 9.707 29.9086 9.69132C29.8134 9.65722 29.7248 9.60783 29.646 9.54433C29.6048 9.50866 29.5676 9.46907 29.5347 9.42556C29.5131 9.40517 29.4931 9.38362 29.4743 9.36049C28.6288 8.0117 27.0229 7.34495 25.4707 7.6989C23.9188 8.05247 22.7602 9.34912 22.5826 10.9311C22.405 12.5132 23.2478 14.0344 24.6828 14.7231C26.1178 15.4122 27.8315 15.1178 28.9549 13.9901C29.1846 13.7604 29.53 13.6918 29.8298 13.8161ZM7.92817 41.049C7.92817 44.9946 11.1267 48.1936 15.0727 48.1936C19.0168 48.1896 22.2133 44.9931 22.2173 41.049C22.2173 37.103 19.0187 33.9045 15.0727 33.9045C11.1267 33.9045 7.92817 37.103 7.92817 41.049ZM33.6167 41.049C33.6167 44.9946 36.8152 48.1936 40.7613 48.1936C44.7053 48.1896 47.9019 44.9931 47.9058 41.049C47.9058 37.103 44.7073 33.9045 40.7613 33.9045C36.8152 33.9045 33.6167 37.103 33.6167 41.049ZM49.3565 42.6545H50.3945V22.5854C50.3945 21.255 49.3161 20.1771 47.9862 20.1771H15.8755C14.5455 20.1771 13.4672 21.255 13.4672 22.5854V29.8103C13.4672 30.2536 13.1077 30.613 12.6644 30.613H9.45335C7.23751 30.6154 5.44226 32.411 5.43952 34.6269V42.6545H6.47747C5.81778 39.1946 7.2967 35.6762 10.2306 33.7269C13.1646 31.7776 16.9809 31.7776 19.9148 33.7269C22.8487 35.6762 24.3277 39.1946 23.668 42.6545H32.166C31.5063 39.1946 32.9852 35.6762 35.9192 33.7269C38.8531 31.7776 42.6694 31.7776 45.6033 33.7269C48.5373 35.6762 50.0162 39.1946 49.3565 42.6545ZM23.9027 11.3467C23.9027 10.0163 24.981 8.93841 26.311 8.93841C27.6409 8.93841 28.7193 10.0163 28.7193 11.3467C28.7193 12.6767 27.6409 13.755 26.311 13.755C24.981 13.755 23.9027 12.6767 23.9027 11.3467ZM25.5082 11.3467C25.5082 11.79 25.8676 12.1495 26.311 12.1495C26.7543 12.1495 27.1137 11.79 27.1137 11.3467C27.1137 10.9034 26.7543 10.5439 26.311 10.5439C25.8676 10.5439 25.5082 10.9034 25.5082 11.3467ZM30.3246 21.7825H16.6776C15.7909 21.7825 15.072 22.5014 15.072 23.388V29.8102C15.072 30.2535 15.4315 30.6129 15.8748 30.6129H30.3246C30.7679 30.6129 31.1274 30.2535 31.1274 29.8102V22.5853C31.1274 22.1419 30.7679 21.7825 30.3246 21.7825ZM29.5218 29.0074H16.6776V23.388H29.5218V29.0074ZM47.058 22.2457H33.411C32.9677 22.2457 32.6082 22.6052 32.6082 23.0485V30.2734C32.6082 30.7167 32.9677 31.0762 33.411 31.0762H47.8608C48.3041 31.0762 48.6636 30.7167 48.6636 30.2734V23.8512C48.6636 22.9646 47.9447 22.2457 47.058 22.2457ZM47.058 29.4706H34.2138V23.8512H47.058V29.4706ZM38.3525 13.755C39.6825 13.755 40.7608 12.6767 40.7608 11.3467C40.7608 10.0163 39.6825 8.93841 38.3525 8.93841C37.0225 8.93841 35.9442 10.0163 35.9442 11.3467C35.9442 12.6767 37.0225 13.755 38.3525 13.755ZM38.3525 10.5439C38.7958 10.5439 39.1553 10.9034 39.1553 11.3467C39.1553 11.79 38.7958 12.1495 38.3525 12.1495C37.9092 12.1495 37.5497 11.79 37.5497 11.3467C37.5497 10.9034 37.9092 10.5439 38.3525 10.5439ZM12.6644 41.049C12.6644 39.7187 13.7427 38.6407 15.0727 38.6407C16.4027 38.6407 17.481 39.7187 17.481 41.049C17.481 42.379 16.4027 43.4573 15.0727 43.4573C13.7427 43.4573 12.6644 42.379 12.6644 41.049ZM14.2699 41.049C14.2699 41.4924 14.6294 41.8518 15.0727 41.8518C15.516 41.8518 15.8755 41.4924 15.8755 41.049C15.8755 40.6057 15.516 40.2463 15.0727 40.2463C14.6294 40.2463 14.2699 40.6057 14.2699 41.049ZM40.7611 38.6407C39.4311 38.6407 38.3528 39.7187 38.3528 41.049C38.3528 42.379 39.4311 43.4573 40.7611 43.4573C42.0911 43.4573 43.1694 42.379 43.1694 41.049C43.1694 39.7187 42.0911 38.6407 40.7611 38.6407ZM40.7611 41.8518C40.3178 41.8518 39.9583 41.4924 39.9583 41.049C39.9583 40.6057 40.3178 40.2463 40.7611 40.2463C41.2044 40.2463 41.5639 40.6057 41.5639 41.049C41.5639 41.4924 41.2044 41.8518 40.7611 41.8518Z" fill="#5B5B5B"/>
</svg>
