<svg width="24" height="24" viewBox="0 0 24 24" fill="none" xmlns="http://www.w3.org/2000/svg">
<path d="M10.0684 16.3648L10.0688 16.3652C10.5081 16.7997 10.9428 17.2298 11.3675 17.6685L11.7268 17.3208M10.0684 16.3648L18.3041 16.1979C19.4698 14.8064 20.4218 13.3082 21.0483 11.6286L21.0485 11.628C21.3533 10.8138 21.5481 10.0246 21.4897 9.2133C21.4557 8.7624 21.2927 8.39999 20.9734 8.09524L20.9729 8.09472C20.6969 7.83049 20.4192 7.55005 20.147 7.27522C19.9809 7.1075 19.8169 6.94187 19.6566 6.78328C19.4418 6.57221 19.2387 6.50079 19.0702 6.5011C18.901 6.50141 18.6967 6.57411 18.4809 6.78426C18.2439 7.01819 18.0123 7.25083 17.7789 7.48527C17.6611 7.60355 17.5429 7.72229 17.4233 7.8419L17.4233 7.84191L17.4209 7.84433C17.0782 8.18225 16.7356 8.52488 16.3977 8.8675L16.3966 8.86856C16.1627 9.1043 16.0887 9.31347 16.0884 9.47872C16.0881 9.64367 16.1611 9.85091 16.3919 10.0835L16.3925 10.0841C16.8221 10.5184 17.2472 10.9482 17.681 11.368C17.783 11.4661 17.8932 11.6089 17.9258 11.8089C17.9566 11.9982 17.9036 12.159 17.8641 12.2578L17.8641 12.2578L17.8617 12.2637C17.5484 13.0187 17.0965 13.674 16.6139 14.2688L16.6136 14.2691C15.6456 15.4597 14.5404 16.5289 13.2141 17.3622L13.2118 17.3636C13.0528 17.4624 12.8901 17.5445 12.7432 17.6168C12.7144 17.6309 12.6864 17.6447 12.659 17.658C12.5409 17.7158 12.4351 17.7676 12.3308 17.8249L12.3303 17.8252C12.2002 17.8965 12.017 17.9623 11.8025 17.9207C11.5979 17.881 11.4557 17.7602 11.3663 17.6673L11.7268 17.3208M10.0684 16.3648C9.85597 16.1541 9.65288 16.0818 9.4844 16.0818C9.31608 16.0818 9.11324 16.154 8.90106 16.3641M10.0684 16.3648L8.90106 16.3641M11.7268 17.3208C11.8447 17.4434 11.9437 17.467 12.0899 17.3868L10.4205 16.0098C10.8591 16.4436 11.2976 16.8775 11.7268 17.3208ZM8.90106 16.3641C8.55018 16.715 8.19935 17.0647 7.84828 17.4146L7.8467 17.4161C7.49499 17.7667 7.14303 18.1175 6.78995 18.4705C6.57129 18.6912 6.4991 18.8969 6.50001 19.0659C6.50092 19.2358 6.5762 19.4449 6.79936 19.6701C6.91613 19.7869 7.03984 19.9069 7.1665 20.0299C7.44928 20.3043 7.74678 20.5931 8.01474 20.8912L8.01595 20.8926C8.43776 21.3653 8.96294 21.5313 9.63905 21.4949L9.63924 21.4948C10.6917 21.4385 11.6794 21.0914 12.6627 20.6111L12.6634 20.6108C14.8582 19.5432 16.7358 18.0688 18.304 16.198L8.90106 16.3641Z" stroke="#5B5B5B"/>
<circle cx="7" cy="6" r="2.5" stroke="#5B5B5B"/>
<path fill-rule="evenodd" clip-rule="evenodd" d="M11 13H12C12 10.2386 9.76142 8 7 8C4.23858 8 2 10.2386 2 13H3C3 10.7909 4.79086 9 7 9C9.20914 9 11 10.7909 11 13Z" fill="#5B5B5B"/>
<path d="M2.5 12.5H11.5" stroke="#5B5B5B"/>
</svg>
