<svg width="56" height="56" viewBox="0 0 56 56" fill="none" xmlns="http://www.w3.org/2000/svg">
<g clip-path="url(#clip0)">
<path d="M27.9708 4C26.24 4 24.832 5.40808 24.832 7.13878V7.83824H22.4414C21.9019 7.83824 21.431 8.13524 21.182 8.57432H13.9233C12.0703 8.57432 10.563 10.0816 10.563 11.9347V48.6398C10.563 50.4925 12.0703 52.0002 13.9233 52.0002H42.0178C43.8708 52.0002 45.3782 50.4925 45.3782 48.6398V29.6405C45.3782 29.2523 45.0636 28.9374 44.675 28.9374C44.2865 28.9374 43.9719 29.2523 43.9719 29.6405V48.6395C43.9719 49.7169 43.0952 50.5936 42.0178 50.5936H13.9233C12.8459 50.5936 11.9692 49.7169 11.9692 48.6395V11.9347C11.9692 10.8569 12.8459 9.98057 13.9233 9.98057H20.9937V11.5267H14.4551C13.9369 11.5267 13.5154 11.9482 13.5154 12.466V48.1077C13.5154 48.6259 13.9369 49.0474 14.4551 49.0474H26.3298C26.7183 49.0474 27.0329 48.7325 27.0329 48.3443C27.0329 47.9558 26.7183 47.6412 26.3298 47.6412H14.9216V12.9329H21.0179C21.1494 13.6309 21.7631 14.1154 22.4414 14.1154H33.4998C34.2011 14.1154 34.7969 13.6071 34.9232 12.9329H41.0195V47.6412H29.6114C29.2228 47.6412 28.9083 47.9558 28.9083 48.3443C28.9083 48.7325 29.2228 49.0474 29.6114 49.0474H41.4861C42.0043 49.0474 42.4258 48.6259 42.4258 48.1077V12.466C42.4258 11.9482 42.0043 11.5267 41.4861 11.5267H34.9474V9.98057H42.0178C43.0952 9.98057 43.9719 10.8573 43.9719 11.9347V26.3593C43.9719 26.7478 44.2865 27.0624 44.675 27.0624C45.0636 27.0624 45.3782 26.7478 45.3782 26.3593V11.9347C45.3782 10.0816 43.8708 8.57432 42.0178 8.57432H34.7592C34.5102 8.13524 34.0396 7.83788 33.4998 7.83788H31.1095V7.13878C31.1095 5.40808 29.7015 4 27.9708 4ZM26.2382 7.13878C26.2382 6.18371 27.0153 5.40624 27.9708 5.40624C28.9258 5.40624 29.7033 6.18371 29.7033 7.13878V7.83824H26.2382V7.13878ZM33.4998 9.24449C33.5207 9.24449 33.5397 9.26353 33.5408 9.28404C33.5408 9.2899 33.5408 9.29576 33.5412 9.30162V12.6682C33.5412 12.6894 33.521 12.7096 33.4998 12.7096H22.4414C22.4201 12.7096 22.4 12.6894 22.4 12.6682C22.4 10.7448 22.4 11.2228 22.4 9.29942C22.4003 9.29429 22.4003 9.28953 22.4003 9.2844C22.4011 9.26353 22.4205 9.24449 22.4414 9.24449H33.4998Z" fill="#5B5B5B"/>
<path d="M29.5624 16.5764H26.3789C25.7036 16.5764 25.1539 17.126 25.1539 17.8013V19.6672H23.2881C22.6128 19.6672 22.0635 20.2165 22.0635 20.8922V24.0756C22.0635 24.7509 22.6128 25.3002 23.2881 25.3002H25.1539V27.1661C25.1539 27.8414 25.7036 28.3911 26.3789 28.3911H29.5624C30.2377 28.3911 30.7874 27.8414 30.7874 27.1661V25.3002H32.6532C33.3285 25.3002 33.8778 24.7509 33.8778 24.0756V20.8922C33.8778 20.2165 33.3285 19.6672 32.6532 19.6672H30.7874V17.8013C30.7874 17.126 30.2377 16.5764 29.5624 16.5764ZM32.4716 21.0734V23.894H30.6061C29.9304 23.894 29.3811 24.4437 29.3811 25.119V26.9848H26.5602V25.119C26.5602 24.4437 26.0109 23.894 25.3356 23.894H23.4697V21.0734H25.3356C26.0109 21.0734 26.5602 20.5241 26.5602 19.8484V17.9826H29.3811V19.8484C29.3811 20.5241 29.9304 21.0734 30.6061 21.0734H32.4716Z" fill="#5B5B5B"/>
<path d="M17.1055 31.7312C17.1055 32.1198 17.4204 32.4343 17.8086 32.4343H38.1322C38.5207 32.4343 38.8353 32.1198 38.8353 31.7312C38.8353 31.3427 38.5207 31.0281 38.1322 31.0281H17.8086C17.4204 31.0281 17.1055 31.3427 17.1055 31.7312Z" fill="#5B5B5B"/>
<path d="M17.8086 35.3226H38.1322C38.5207 35.3226 38.8353 35.0077 38.8353 34.6195C38.8353 34.231 38.5207 33.916 38.1322 33.916H17.8086C17.4204 33.916 17.1055 34.231 17.1055 34.6195C17.1055 35.0077 17.4204 35.3226 17.8086 35.3226Z" fill="#5B5B5B"/>
<path d="M17.8086 38.2109H38.1322C38.5207 38.2109 38.8353 37.896 38.8353 37.5078C38.8353 37.1193 38.5207 36.8047 38.1322 36.8047H17.8086C17.4204 36.8047 17.1055 37.1193 17.1055 37.5078C17.1055 37.896 17.4204 38.2109 17.8086 38.2109Z" fill="#5B5B5B"/>
<path d="M17.8086 41.0992H38.1322C38.5207 41.0992 38.8353 40.7843 38.8353 40.3961C38.8353 40.0075 38.5207 39.693 38.1322 39.693H17.8086C17.4204 39.693 17.1055 40.0075 17.1055 40.3961C17.1055 40.7843 17.4204 41.0992 17.8086 41.0992Z" fill="#5B5B5B"/>
<path d="M17.8086 43.9875H38.1322C38.5207 43.9875 38.8353 43.6726 38.8353 43.2844C38.8353 42.8958 38.5207 42.5809 38.1322 42.5809H17.8086C17.4204 42.5809 17.1055 42.8958 17.1055 43.2844C17.1055 43.6726 17.4204 43.9875 17.8086 43.9875Z" fill="#5B5B5B"/>
</g>
<defs>
<clipPath id="clip0">
<rect width="48" height="48" fill="white" transform="translate(4 4)"/>
</clipPath>
</defs>
</svg>
