<svg width="48" height="48" viewBox="0 0 48 48" fill="none" xmlns="http://www.w3.org/2000/svg">
<path fill-rule="evenodd" clip-rule="evenodd" d="M40.2768 34.5486C39.8776 34.5486 39.5541 34.8721 39.5541 35.2713V39.8783C39.5541 41.1754 38.4989 42.2307 37.2017 42.2307H14.4084C13.4682 42.2307 12.656 41.6888 12.2796 40.8857H26.5747C26.9739 40.8857 27.2974 40.5622 27.2974 40.163C27.2974 39.7637 26.9738 39.4403 26.5747 39.4403H10.554C9.25698 39.4403 8.20169 38.3851 8.20169 37.0879V34.7631H9.46404C10.5685 34.7631 11.467 33.8646 11.467 32.7602C11.467 31.6559 10.5685 30.7573 9.46404 30.7573H8.20169V27.8848H9.46404C10.5684 27.8848 11.467 26.9863 11.467 25.8819C11.467 24.7775 10.5685 23.879 9.46404 23.879H8.20169V21.0065H9.46404C10.5684 21.0065 11.467 20.108 11.467 19.0036C11.467 17.8992 10.5685 17.0007 9.46404 17.0007H8.20169V14.1283H9.46404C10.5684 14.1283 11.467 13.2298 11.467 12.1254C11.467 11.021 10.5685 10.1225 9.46404 10.1225H8.20169V7.79774C8.20169 6.50068 9.2569 5.44539 10.554 5.44539H14.0862C14.4854 5.44539 14.8089 5.12193 14.8089 4.72269C14.8089 4.32345 14.4853 4 14.0862 4H10.554C8.45989 4 6.7563 5.70375 6.7563 7.79774V10.1225H6.00238C4.89796 10.1225 3.99951 11.021 3.99951 12.1254C3.99951 13.2298 4.89796 14.1283 6.00238 14.1283H6.7563V17.0008H6.00238C4.89796 17.0008 3.99951 17.8993 3.99951 19.0037C3.99951 20.1081 4.89796 21.0065 6.00238 21.0065H6.7563V23.8791H6.00238C4.89796 23.8791 3.99951 24.7776 3.99951 25.882C3.99951 26.9864 4.89796 27.8848 6.00238 27.8848H6.7563V30.7574H6.00238C4.89796 30.7574 3.99951 31.6559 3.99951 32.7603C3.99951 33.8647 4.89796 34.7631 6.00238 34.7631H6.7563V37.088C6.7563 39.182 8.45997 40.8857 10.554 40.8857H10.746C11.1869 42.5149 12.6604 43.6762 14.4084 43.6762H37.2017C39.2958 43.6762 40.9995 41.9724 40.9995 39.8784V35.2714C40.9995 34.8723 40.6759 34.5486 40.2768 34.5486ZM6.00238 12.6828C5.69497 12.6828 5.4449 12.4328 5.4449 12.1253C5.4449 11.8179 5.69497 11.5678 6.00238 11.5678H9.46404C9.76711 11.5678 10.0214 11.8223 10.0214 12.1253C10.0214 12.4327 9.77138 12.6828 9.46404 12.6828H6.00238ZM6.00238 19.5611C5.69497 19.5611 5.4449 19.3111 5.4449 19.0037C5.4449 18.6963 5.69497 18.4462 6.00238 18.4462H9.46404C9.77145 18.4462 10.0214 18.6963 10.0214 19.0037C10.0214 19.3111 9.77138 19.5611 9.46404 19.5611H6.00238ZM6.00238 26.4394C5.69497 26.4394 5.4449 26.1893 5.4449 25.8819C5.4449 25.5745 5.69497 25.3245 6.00238 25.3245H9.46404C9.77145 25.3245 10.0214 25.5746 10.0214 25.8819C10.0214 26.1847 9.76688 26.4394 9.46404 26.4394H6.00238ZM6.00238 33.3177C5.69497 33.3177 5.4449 33.0676 5.4449 32.7602C5.4449 32.4528 5.69497 32.2027 6.00238 32.2027H9.46404C9.76735 32.2027 10.0214 32.4576 10.0214 32.7602C10.0214 33.0611 9.76494 33.3177 9.46404 33.3177H6.00238ZM29.5212 11.2231H14.3808C13.9817 11.2231 13.6581 11.5465 13.6581 11.9458V20.4416C13.6581 20.8409 13.9817 21.1643 14.3808 21.1643H29.5212C29.9203 21.1643 30.2439 20.8409 30.2439 20.4416V11.9458C30.2439 11.5465 29.9204 11.2231 29.5212 11.2231ZM28.7985 19.7189H15.1035V12.6684H28.7985V19.7189ZM25.7301 14.0189H18.1707C17.7715 14.0189 17.448 14.3424 17.448 14.7416C17.448 15.1408 17.7716 15.4643 18.1707 15.4643H25.7301C26.1293 15.4643 26.4528 15.1408 26.4528 14.7416C26.4528 14.3424 26.1292 14.0189 25.7301 14.0189ZM18.1707 16.9229H25.7301C26.1292 16.9229 26.4528 17.2464 26.4528 17.6456C26.4528 18.0449 26.1293 18.3683 25.7301 18.3683H18.1707C17.7716 18.3683 17.448 18.0449 17.448 17.6456C17.448 17.2464 17.7715 16.9229 18.1707 16.9229ZM37.0086 6.79042H37.2018C39.2959 6.79042 40.9996 8.49417 40.9996 10.5882V32.3806C40.9996 32.7798 40.676 33.1033 40.2769 33.1033C39.8778 33.1033 39.5542 32.7798 39.5542 32.3806V10.5882C39.5542 9.29102 38.4989 8.23581 37.2018 8.23581H37.1452V37.0878C37.1452 39.1818 35.4415 40.8855 33.3474 40.8855H29.356C28.9569 40.8855 28.6333 40.5621 28.6333 40.1628C28.6333 39.7636 28.9569 39.4401 29.356 39.4401H33.3474C34.6446 39.4401 35.6998 38.3848 35.6998 37.0878V7.79759C35.6998 7.7614 35.6987 7.72537 35.6971 7.68949C35.6953 7.65384 35.6927 7.61719 35.6892 7.57906L35.6892 7.57736C35.5777 6.38328 34.5703 5.44539 33.3474 5.44539H16.9771C16.578 5.44539 16.2544 5.12193 16.2544 4.72269C16.2544 4.32345 16.578 4 16.9771 4H33.3474C35.0927 4 36.5658 5.18385 37.0086 6.79042Z" fill="#5B5B5B"/>
</svg>
