<svg width="9" height="16" viewBox="0 0 9 16" fill="none" xmlns="http://www.w3.org/2000/svg">
<path d="M8.30429 0.503121L6.35915 0.5C4.17385 0.5 2.76161 1.94892 2.76161 4.19152V5.89356H0.805855C0.636855 5.89356 0.5 6.03057 0.5 6.19957V8.66563C0.5 8.83463 0.637011 8.97149 0.805855 8.97149H2.76161V15.1941C2.76161 15.3631 2.89846 15.5 3.06746 15.5H5.61917C5.78817 15.5 5.92502 15.363 5.92502 15.1941V8.97149H8.21175C8.38075 8.97149 8.51761 8.83463 8.51761 8.66563L8.51854 6.19957C8.51854 6.11843 8.48624 6.04071 8.42897 5.98329C8.3717 5.92586 8.29368 5.89356 8.21253 5.89356H5.92502V4.45072C5.92502 3.75723 6.09028 3.40518 6.99364 3.40518L8.30398 3.40472C8.47282 3.40472 8.60968 3.2677 8.60968 3.09886V0.808979C8.60968 0.640289 8.47298 0.503433 8.30429 0.503121Z" fill="black"/>
</svg>
