<svg width="48" height="45" viewBox="0 0 48 45" fill="none" xmlns="http://www.w3.org/2000/svg">
<path d="M46.7316 39.2368H45.3739V13.8484H45.8142C47.0013 13.8484 47.9671 12.8826 47.9671 11.6955C47.9671 10.5084 47.0013 9.54264 45.8142 9.54264H41.8363V5.37756C42.6837 5.27066 43.3416 4.54703 43.3416 3.67107V2.22157C43.3416 1.27225 42.5694 0.5 41.6201 0.5H33.214C32.2648 0.5 31.4925 1.27225 31.4925 2.22157V3.67098C31.4925 4.54694 32.1505 5.27066 32.9979 5.37746V9.54273H28.4028V5.37746C29.2502 5.27057 29.9081 4.54694 29.9081 3.67098V2.22157C29.9081 1.27225 29.1359 0.5 28.1866 0.5H19.7805C18.8312 0.5 18.059 1.27225 18.059 2.22157V3.67098C18.059 4.54694 18.7169 5.27057 19.5643 5.37746V9.54273H14.9692V5.37746C15.8166 5.27066 16.4745 4.54694 16.4745 3.67098V2.22157C16.4745 1.27225 15.7023 0.5 14.7531 0.5H6.34702C5.3977 0.5 4.62545 1.27225 4.62545 2.22157V3.67098C4.62545 4.54694 5.28341 5.27057 6.13079 5.37746V9.54273H2.1529C0.965806 9.54273 0 10.5084 0 11.6956C0 12.8828 0.965806 13.8485 2.1529 13.8485H2.59322V39.2368H1.23543C0.554245 39.2368 0 39.791 0 40.4724V43.5145C0 44.1958 0.554245 44.75 1.23543 44.75H46.7316C47.4128 44.75 47.967 44.1957 47.967 43.5145V40.4724C47.9671 39.791 47.4128 39.2368 46.7316 39.2368ZM32.8973 3.67098V2.22157C32.8973 2.04684 33.0394 1.90472 33.214 1.90472H41.6201C41.7948 1.90472 41.9369 2.04684 41.9369 2.22157V3.67098C41.9369 3.8457 41.7948 3.98783 41.6201 3.98783H41.1339H33.7003H33.2141C33.0394 3.98792 32.8973 3.8457 32.8973 3.67098ZM40.4315 5.39255V9.54273H34.4026V5.39255H40.4315ZM19.4637 3.67098V2.22157C19.4637 2.04684 19.6058 1.90472 19.7805 1.90472H28.1866C28.3613 1.90472 28.5034 2.04684 28.5034 2.22157V3.67098C28.5034 3.8457 28.3613 3.98783 28.1866 3.98783H27.7004H20.2667H19.7806C19.6058 3.98792 19.4637 3.8457 19.4637 3.67098ZM26.998 5.39255V9.54273H20.969V5.39255H26.998ZM6.03027 3.67098V2.22157C6.03027 2.04684 6.17239 1.90472 6.34711 1.90472H14.7532C14.9278 1.90472 15.0699 2.04684 15.0699 2.22157V3.67098C15.0699 3.8457 14.9278 3.98783 14.7532 3.98783H14.2669H6.83325H6.34711C6.17239 3.98792 6.03027 3.8457 6.03027 3.67098ZM13.5645 5.39255V9.54273H7.53561V5.39255H13.5645ZM2.1529 12.4438C1.7404 12.4438 1.40482 12.1081 1.40482 11.6957C1.40482 11.2833 1.74049 10.9476 2.1529 10.9476H45.8142V10.9475C46.2267 10.9475 46.5623 11.2832 46.5623 11.6956C46.5623 12.108 46.2266 12.4437 45.8142 12.4437V12.4438H2.1529ZM34.4026 19.8684V13.8484H40.4315V19.8684H34.4026ZM40.4315 21.2732V31.7773C40.4315 33.4394 39.0792 34.7917 37.417 34.7917C35.755 34.7917 34.4027 33.4394 34.4027 31.7773V21.2732H40.4315ZM20.9691 19.8684V13.8484H26.9981V19.8684H20.9691ZM26.998 21.2732V31.7773C26.998 33.4394 25.6457 34.7917 23.9835 34.7917C22.3214 34.7917 20.9691 33.4394 20.9691 31.7773V21.2732H26.998ZM13.5645 13.8484V19.8684H7.53561V13.8484H13.5645ZM46.5624 43.3452H1.40472V40.6415H36.3688C36.7567 40.6415 37.0712 40.3271 37.0712 39.9391C37.0712 39.5512 36.7567 39.2368 36.3688 39.2368H3.99794V13.8484H6.13079V22.8357C6.13079 23.2237 6.4452 23.5381 6.83315 23.5381C7.22111 23.5381 7.53552 23.2237 7.53552 22.8357V21.2732H13.5644V31.7773C13.5644 33.4394 12.2121 34.7917 10.5499 34.7917C8.88787 34.7917 7.53561 33.4394 7.53561 31.7773V26.1603C7.53561 25.7724 7.2212 25.458 6.83325 25.458C6.4453 25.458 6.13089 25.7724 6.13089 26.1603V31.7773C6.13089 34.214 8.11337 36.1965 10.5501 36.1965C12.9869 36.1965 14.9693 34.214 14.9693 31.7773V13.8484H19.5644V31.7773C19.5644 34.214 21.5469 36.1965 23.9836 36.1965C26.4204 36.1965 28.4029 34.214 28.4029 31.7773V13.8484H32.998V31.7773C32.998 34.214 34.9805 36.1965 37.4172 36.1965C39.854 36.1965 41.8364 34.214 41.8364 31.7773V13.8484H43.9692V39.2367H39.6624C39.2744 39.2367 38.96 39.5511 38.96 39.9391C38.96 40.327 39.2744 40.6414 39.6624 40.6414H46.5624V43.3452Z" fill="#5B5B5B"/>
</svg>
