<svg width="24" height="24" viewBox="0 0 24 24" fill="none" xmlns="http://www.w3.org/2000/svg">
<path fill-rule="evenodd" clip-rule="evenodd" d="M16.2962 14.5786H15.3882L15.0726 14.2653C16.1875 12.9651 16.8656 11.2796 16.8656 9.43283C16.8656 5.32763 13.538 2.00002 9.43282 2.00002C5.32762 2.00002 2 5.32763 2 9.43283C2 13.538 5.32762 16.8657 9.43282 16.8657C11.2796 16.8657 12.964 16.1887 14.2642 15.0749L14.5798 15.3882V16.2939L20.295 22.0012L22 20.2962L16.2962 14.5786ZM9.43252 14.578C6.58992 14.578 4.28702 12.2751 4.28702 9.43253C4.28702 6.59108 6.58992 4.28704 9.43252 4.28704C12.274 4.28704 14.578 6.59108 14.578 9.43253C14.578 12.2751 12.274 14.578 9.43252 14.578Z" fill="white"/>
</svg>
