<svg width="24" height="24" viewBox="0 0 24 24" fill="none" xmlns="http://www.w3.org/2000/svg">
<g clip-path="url(#clip0)">
<path d="M15.7595 6.69586C15.7312 6.66006 15.0529 5.80911 13.89 4.95472C12.3359 3.81297 10.6449 3.20947 8.99998 3.20947C7.35499 3.20947 5.66405 3.81297 4.10999 4.95472C2.94707 5.80908 2.26873 6.66006 2.24044 6.69586L2 6.99995L2.24044 7.30408C2.26873 7.33987 2.94707 8.19086 4.10999 9.04525C5.66408 10.187 7.35499 10.7905 8.99998 10.7905C10.6449 10.7905 12.3359 10.187 13.89 9.04525C15.0529 8.19086 15.7312 7.33987 15.7595 7.30408L16 6.99995L15.7595 6.69586ZM13.287 8.27119C12.326 8.97304 10.8023 9.80971 8.99998 9.80971C7.1977 9.80971 5.67389 8.97304 4.71297 8.27119C4.05354 7.78955 3.55933 7.30242 3.27758 6.99995C3.55945 6.69739 4.0536 6.21032 4.71294 5.72871C5.67389 5.02683 7.19767 4.19016 8.99995 4.19016C10.8022 4.19016 12.3261 5.02683 13.2869 5.72871C13.9464 6.21036 14.4406 6.69748 14.7223 6.99992C14.4405 7.30251 13.9463 7.78961 13.287 8.27119Z" fill="white"/>
<path d="M9 4.92603C8.49688 4.92603 8.03565 5.10529 7.67651 5.40328C7.96072 5.48649 8.16839 5.74897 8.16839 6.06011C8.16839 6.43813 7.86194 6.74458 7.48392 6.74458C7.28526 6.74458 7.10645 6.65987 6.98141 6.52471C6.94561 6.6774 6.92603 6.83637 6.92603 6.99998C6.92603 8.1454 7.85458 9.07393 9 9.07393C10.1454 9.07393 11.0739 8.1454 11.0739 6.99998C11.0739 5.85455 10.1455 4.92603 9 4.92603Z" fill="white"/>
<path d="M5.87757 18.7781H3.73513L3.32782 20H2.02851L4.23612 14.0696H5.36844L7.58827 20H6.28895L5.87757 18.7781ZM4.06505 17.7883H5.54765L4.80228 15.5685L4.06505 17.7883ZM12.1953 18.5559H9.66331L9.18195 20H7.6464L10.2554 12.9913H11.5936L14.217 20H12.6815L12.1953 18.5559ZM10.0532 17.3862H11.8054L10.9245 14.7628L10.0532 17.3862ZM19.886 18.2227H16.7697L16.1773 20H14.2874L17.4984 11.374H19.1454L22.3743 20H20.4844L19.886 18.2227ZM17.2496 16.783H19.4061L18.3219 13.5542L17.2496 16.783Z" fill="white"/>
</g>
<defs>
<clipPath id="clip0">
<rect width="24" height="24" fill="white"/>
</clipPath>
</defs>
</svg>
