<svg width="24" height="24" fill="none" xmlns="http://www.w3.org/2000/svg"><rect x="4.5" y="19.5" width="15" height="2" rx=".5" stroke="#5B5B5B"/><rect x="4.5" y="17.5" width="15" height="2" rx=".5" stroke="#5B5B5B"/><rect x="4.5" y="15.5" width="15" height="2" rx=".5" stroke="#5B5B5B"/><circle cx="14" cy="10" r="5.5" stroke="#5B5B5B"/><path d="M13.316 10.922V13h-.7V7.692h1.958c.58 0 1.035.148 1.364.444.33.297.495.69.495 1.178 0 .515-.161.913-.485 1.192-.32.277-.781.416-1.381.416h-1.25zm0-.572h1.258c.374 0 .661-.088.86-.263.2-.177.3-.433.3-.766 0-.316-.1-.568-.3-.758-.199-.19-.472-.288-.82-.295h-1.298v2.082z" fill="#5B5B5B"/><path d="M12 12h2.5" stroke="#5B5B5B" stroke-width=".5"/></svg>