<svg width="48" height="48" viewBox="0 0 48 48" fill="none" xmlns="http://www.w3.org/2000/svg">
<rect x="8.5" y="8.5" width="31" height="17" rx="0.5" stroke="#5B5B5B"/>
<path d="M19.8442 35.9143L20.1905 35.197H19.3939H6C5.18522 35.197 4.5 34.5117 4.5 33.697V6C4.5 5.18522 5.18522 4.5 6 4.5H42C42.8148 4.5 43.5 5.18522 43.5 6V33.697C43.5 34.5117 42.8148 35.197 42 35.197H28.6061H27.8095L28.1558 35.9143L29.8527 39.4295L29.9892 39.7121H30.303H31.0303C33.0012 39.7121 34.6553 41.3126 34.7121 43.2797V43.2799V43.2802V43.2806V43.2809V43.2812V43.2815V43.2819V43.2822V43.2825V43.2828V43.2831V43.2834V43.2837V43.2841V43.2844V43.2847V43.285V43.2853V43.2856V43.2859V43.2862V43.2865V43.2868V43.2871V43.2874V43.2877V43.288V43.2883V43.2886V43.2889V43.2892V43.2895V43.2898V43.29V43.2903V43.2906V43.2909V43.2912V43.2915V43.2918V43.292V43.2923V43.2926V43.2929V43.2932V43.2934V43.2937V43.294V43.2943V43.2945V43.2948V43.2951V43.2953V43.2956V43.2959V43.2961V43.2964V43.2967V43.2969V43.2972V43.2974V43.2977V43.298V43.2982V43.2985V43.2987V43.299V43.2992V43.2995V43.2998V43.3V43.3003V43.3005V43.3008V43.301V43.3013V43.3015V43.3017V43.302V43.3022V43.3025V43.3027V43.303V43.3032V43.3034V43.3037V43.3039V43.3042V43.3044V43.3046V43.3049V43.3051V43.3053V43.3056V43.3058V43.306V43.3063V43.3065V43.3067V43.3069V43.3072V43.3074V43.3076V43.3078V43.3081V43.3083V43.3085V43.3087V43.309V43.3092V43.3094V43.3096V43.3098V43.3101V43.3103V43.3105V43.3107V43.3109V43.3111V43.3114V43.3116V43.3118V43.312V43.3122V43.3124V43.3126V43.3128V43.313V43.3133V43.3135V43.3137V43.3139V43.3141V43.3143V43.3145V43.3147V43.3149V43.3151V43.3153V43.3155V43.3157V43.3159V43.3161V43.3163V43.3165V43.3167V43.3169V43.3171V43.3173V43.3175V43.3177V43.3179V43.3181V43.3183V43.3185V43.3187V43.3189V43.3191V43.3193V43.3195V43.3197V43.3199V43.32V43.3202V43.3204V43.3206V43.3208V43.321V43.3212V43.3214V43.3216V43.3218V43.3219V43.3221V43.3223V43.3225V43.3227V43.3229V43.3231V43.3233V43.3234V43.3236V43.3238V43.324V43.3242V43.3244V43.3246V43.3247V43.3249V43.3251V43.3253V43.3255V43.3257V43.3258V43.326V43.3262V43.3264V43.3266V43.3267V43.3269V43.3271V43.3273V43.3275V43.3276V43.3278V43.328V43.3282V43.3284V43.3285V43.3287V43.3289V43.3291V43.3293V43.3294V43.3296V43.3298V43.33V43.3302V43.3303V43.3305V43.3307V43.3309V43.3311V43.3312V43.3314V43.3316V43.3318V43.3319V43.3321V43.3323V43.3325V43.3326V43.3328V43.333V43.3332V43.3334V43.3335V43.3337V43.3339V43.3341V43.3342V43.3344V43.3346V43.3348V43.335V43.3351V43.3353V43.3355V43.3357V43.3358V43.336V43.3362V43.3364V43.3366V43.3367V43.3369V43.3371V43.3373V43.3375V43.3376V43.3378V43.338V43.3382V43.3384V43.3385V43.3387V43.3389V43.3391V43.3393V43.3394V43.3396V43.3398V43.34V43.3402V43.3403V43.3405V43.3407V43.3409V43.3411V43.3413V43.3414V43.3416V43.3418V43.342V43.3422V43.3424V43.3425V43.3427V43.3429V43.3431V43.3433V43.3435V43.3437V43.3438V43.344V43.3442V43.3444V43.3446V43.3448V43.345V43.3451V43.3453V43.3455V43.3457V43.3459V43.3461V43.3463V43.3465V43.3467V43.3469V43.3471V43.3473V43.3474V43.3476V43.3478V43.348V43.3482V43.3484V43.3486V43.3488V43.349V43.3492V43.3494V43.3496V43.3498V43.35V43.3502V43.3504V43.3506V43.3508V43.351V43.3512V43.3514V43.3516V43.3518V43.352V43.3522V43.3524V43.3526V43.3528V43.3531V43.3533V43.3535V43.3537V43.3539V43.3541V43.3543V43.3545V43.3547V43.3549V43.3552V43.3554V43.3556V43.3558V43.356V43.3562V43.3564V43.3567V43.3569V43.3571V43.3573V43.3575V43.3578V43.358V43.3582V43.3584V43.3587V43.3589V43.3591V43.3593V43.3596V43.3598V43.36V43.3602V43.3605V43.3607V43.3609V43.3612V43.3614V43.3616V43.3619V43.3621V43.3623V43.3626V43.3628V43.363V43.3633V43.3635V43.3638V43.364V43.3642V43.3645V43.3647V43.365V43.3652V43.3655V43.3657V43.366V43.3662V43.3665V43.3667V43.367V43.3672V43.3675V43.3677V43.368V43.3682V43.3685V43.3688V43.369V43.3693V43.3695V43.3698V43.3701V43.3703V43.3706V43.3709V43.3711V43.3714V43.3717V43.3719V43.3722V43.3725V43.3727V43.373V43.3733V43.3736V43.3738V43.3741V43.3744V43.3747V43.375V43.3752V43.3755V43.3758V43.3761V43.3764V43.3767V43.377V43.3773V43.3775V43.3778V43.3781V43.3784V43.3787V43.379V43.3793V43.3796V43.3799V43.3802V43.3805V43.3808V43.3811V43.3814V43.3817V43.382V43.3824V43.3827V43.383V43.3833V43.3836V43.3839V43.3842V43.3846V43.3849V43.3852V43.3855V43.3858V43.3862V43.3865V43.3868V43.3871V43.3875V43.3878V43.3881V43.3885V43.3888V43.3891V43.3895V43.3898V43.3901V43.3905V43.3908V43.3912V43.3915V43.3919V43.3922V43.3926V43.3929V43.3933V43.3936V43.394C34.7121 43.4292 34.7063 43.4511 34.7018 43.4626C34.6976 43.4736 34.6936 43.4781 34.6919 43.4798C34.6901 43.4815 34.6857 43.4855 34.6747 43.4898C34.6632 43.4942 34.6413 43.5 34.606 43.5H13.394C13.3587 43.5 13.3368 43.4942 13.3253 43.4898C13.3143 43.4855 13.3099 43.4815 13.3081 43.4798C13.3064 43.4781 13.3024 43.4736 13.2982 43.4626C13.2937 43.4511 13.2879 43.4292 13.2879 43.394C13.2879 41.3671 14.9428 39.7121 16.9697 39.7121H17.697H18.0108L18.1473 39.4295L19.8442 35.9143ZM33.9394 43.2879H34.5385L34.4313 42.6985C34.1458 41.128 32.7272 39.9243 31.0909 39.9243H31.0586H31.0264H30.9941H30.9619H30.9297H30.8976H30.8655H30.8334H30.8013H30.7693H30.7373H30.7053H30.6734H30.6415H30.6096H30.5778H30.5459H30.5141H30.4824H30.4506H30.4189H30.3873H30.3556H30.324H30.2924H30.2608H30.2293H30.1978H30.1663H30.1349H30.1035H30.0721H30.0407H30.0094H29.9781H29.9468H29.9156H29.8843H29.8531H29.822H29.7908H29.7597H29.7287H29.6976H29.6666H29.6356H29.6046H29.5737H29.5427H29.5118H29.481H29.4501H29.4193H29.3886H29.3578H29.3271H29.2964H29.2657H29.235H29.2044H29.1738H29.1432H29.1127H29.0822H29.0517H29.0212H28.9908H28.9604H28.93H28.8996H28.8693H28.8389H28.8087H28.7784H28.7482H28.7179H28.6878H28.6576H28.6275H28.5973H28.5673H28.5372H28.5072H28.4771H28.4472H28.4172H28.3873H28.3573H28.3275H28.2976H28.2677H28.2379H28.2081H28.1784H28.1486H28.1189H28.0892H28.0595H28.0299H28.0002H27.9706H27.9411H27.9115H27.882H27.8525H27.823H27.7935H27.7641H27.7346H27.7052H27.6759H27.6465H27.6172H27.5879H27.5586H27.5293H27.5001H27.4709H27.4417H27.4125H27.3834H27.3542H27.3251H27.2961H27.267H27.238H27.2089H27.1799H27.151H27.122H27.0931H27.0642H27.0353H27.0064H26.9776H26.9487H26.9199H26.8911H26.8624H26.8336H26.8049H26.7762H26.7475H26.7189H26.6902H26.6616H26.633H26.6044H26.5759H26.5473H26.5188H26.4903H26.4618H26.4334H26.4049H26.3765H26.3481H26.3197H26.2913H26.263H26.2347H26.2064H26.1781H26.1498H26.1216H26.0933H26.0651H26.0369H26.0088H25.9806H25.9525H25.9244H25.8963H25.8682H25.8401H25.8121H25.784H25.756H25.728H25.7001H25.6721H25.6442H25.6163H25.5884H25.5605H25.5326H25.5048H25.4769H25.4491H25.4213H25.3935H25.3658H25.338H25.3103H25.2826H25.2549H25.2272H25.1996H25.1719H25.1443H25.1167H25.0891H25.0615H25.0339H25.0064H24.9788H24.9513H24.9238H24.8963H24.8689H24.8414H24.814H24.7866H24.7592H24.7318H24.7044H24.677H24.6497H24.6224H24.5951H24.5678H24.5405H24.5132H24.4859H24.4587H24.4315H24.4043H24.3771H24.3499H24.3227H24.2956H24.2684H24.2413H24.2142H24.1871H24.16H24.133H24.1059H24.0789H24.0518H24.0248H23.9978H23.9708H23.9439H23.9169H23.89H23.863H23.8361H23.8092H23.7823H23.7554H23.7286H23.7017H23.6749H23.648H23.6212H23.5944H23.5676H23.5408H23.5141H23.4873H23.4606H23.4338H23.4071H23.3804H23.3537H23.327H23.3004H23.2737H23.247H23.2204H23.1938H23.1672H23.1406H23.114H23.0874H23.0608H23.0343H23.0077H22.9812H22.9547H22.9281H22.9016H22.8751H22.8487H22.8222H22.7957H22.7693H22.7428H22.7164H22.69H22.6636H22.6371H22.6108H22.5844H22.558H22.5316H22.5053H22.4789H22.4526H22.4263H22.4H22.3737H22.3474H22.3211H22.2948H22.2685H22.2423H22.216H22.1898H22.1635H22.1373H22.1111H22.0849H22.0587H22.0325H22.0063H21.9801H21.9539H21.9278H21.9016H21.8755H21.8494H21.8232H21.7971H21.771H21.7449H21.7188H21.6927H21.6666H21.6405H21.6145H21.5884H21.5623H21.5363H21.5103H21.4842H21.4582H21.4322H21.4062H21.3802H21.3542H21.3282H21.3022H21.2762H21.2502H21.2242H21.1983H21.1723H21.1464H21.1204H21.0945H21.0685H21.0426H21.0167H20.9908H20.9649H20.939H20.9131H20.8872H20.8613H20.8354H20.8095H20.7836H20.7578H20.7319H20.706H20.6802H20.6543H20.6285H20.6026H20.5768H20.551H20.5251H20.4993H20.4735H20.4477H20.4218H20.396H20.3702H20.3444H20.3186H20.2928H20.267H20.2412H20.2155H20.1897H20.1639H20.1381H20.1124H20.0866H20.0608H20.0351H20.0093H19.9835H19.9578H19.932H19.9063H19.8805H19.8548H19.829H19.8033H19.7776H19.7518H19.7261H19.7004H19.6746H19.6489H19.6232H19.5975H19.5717H19.546H19.5203H19.4946H19.4689H19.4431H19.4174H19.3917H19.366H19.3403H19.3146H19.2889H19.2632H19.2374H19.2117H19.186H19.1603H19.1346H19.1089H19.0832H19.0575H19.0318H19.0061H18.9804H18.9547H18.929H18.9033H18.8776H18.8519H18.8262H18.8004H18.7747H18.749H18.7233H18.6976H18.6719H18.6462H18.6205H18.5948H18.5691H18.5433H18.5176H18.4919H18.4662H18.4405H18.4147H18.389H18.3633H18.3376H18.3118H18.2861H18.2604H18.2346H18.2089H18.1832H18.1574H18.1317H18.1059H18.0802H18.0544H18.0287H18.0029H17.9772H17.9514H17.9256H17.8999H17.8741H17.8483H17.8225H17.7968H17.771H17.7452H17.7194H17.6936H17.6678H17.642H17.6162H17.5904H17.5646H17.5388H17.5129H17.4871H17.4613H17.4355H17.4096H17.3838H17.3579H17.3321H17.3062H17.2804H17.2545H17.2286H17.2028H17.1769H17.151H17.1251H17.0992H17.0733H17.0474H17.0215H16.9956H16.9697C15.2628 39.9243 13.9235 41.1352 13.573 42.6771L13.4342 43.2879H14.0606H33.9394ZM28.9697 39.7121H29.7787L29.4169 38.9885L27.6593 35.4734L27.5211 35.197H27.2121H20.7272H20.4134L20.2769 35.4796L18.58 38.9948L18.2337 39.7121H19.0303H28.9697ZM5.21214 28.7727H4.71214V29.2727V33.697C4.71214 34.483 5.32536 34.9848 6 34.9848H6.04248H6.08543H6.12883H6.17269H6.217H6.26176H6.30697H6.35263H6.39872H6.44527H6.49225H6.53966H6.58752H6.63581H6.68453H6.73368H6.78325H6.83326H6.88368H6.93453H6.9858H7.03748H7.08958H7.1421H7.19502H7.24836H7.3021H7.35624H7.41079H7.46574H7.52109H7.57683H7.63297H7.68951H7.74643H7.80374H7.86144H7.91952H7.97799H8.03683H8.09606H8.15566H8.21563H8.27598H8.33669H8.39778H8.45923H8.52104H8.58322H8.64575H8.70865H8.7719H8.8355H8.89945H8.96376H9.02841H9.0934H9.15874H9.22443H9.29045H9.3568H9.4235H9.49052H9.55788H9.62556H9.69358H9.76191H9.83057H9.89956H9.96885H10.0385H10.1084H10.1786H10.2492H10.3201H10.3912H10.4627H10.5345H10.6065H10.6789H10.7516H10.8246H10.8978H10.9714H11.0452H11.1193H11.1937H11.2684H11.3434H11.4186H11.4941H11.5699H11.646H11.7223H11.7989H11.8757H11.9529H12.0303H12.1079H12.1858H12.264H12.3424H12.421H12.4999H12.5791H12.6585H12.7382H12.818H12.8982H12.9785H13.0591H13.1399H13.221H13.3023H13.3838H13.4655H13.5475H13.6297H13.712H13.7947H13.8775H13.9605H14.0438H14.1272H14.2109H14.2947H14.3788H14.4631H14.5475H14.6322H14.717H14.8021H14.8873H14.9727H15.0583H15.1441H15.2301H15.3162H15.4025H15.489H15.5757H15.6625H15.7495H15.8367H15.924H16.0115H16.0992H16.187H16.275H16.3631H16.4514H16.5398H16.6284H16.7171H16.806H16.895H16.9842H17.0735H17.1629H17.2524H17.3421H17.4319H17.5219H17.612H17.7022H17.7925H17.8829H17.9735H18.0641H18.1549H18.2458H18.3368H18.4279H18.5191H18.6104H18.7018H18.7933H18.885H18.9767H19.0685H19.1603H19.2523H19.3444H19.4365H19.5288H19.6211H19.7135H19.8059H19.8984H19.9911H20.0837H20.1765H20.2693H20.3622H20.4551H20.5481H20.6412H20.7343H20.8274H20.9206H21.0139H21.1072H21.2006H21.294H21.3874H21.4809H21.5744H21.668H21.7615H21.8552H21.9488H22.0425H22.1362H22.2299H22.3236H22.4174H22.5111H22.6049H22.6987H22.7925H22.8863H22.9802H23.074H23.1678H23.2617H23.3555H23.4493H23.5431H23.6369H23.7307H23.8245H23.9183H24.012H24.1058H24.1995H24.2932H24.3868H24.4805H24.5741H24.6677H24.7612H24.8547H24.9482H25.0416H25.135H25.2284H25.3217H25.415H25.5082H25.6013H25.6944H25.7875H25.8805H25.9734H26.0663H26.1591H26.2518H26.3445H26.4371H26.5296H26.6221H26.7145H26.8068H26.899H26.9911H27.0832H27.1751H27.267H27.3588H27.4505H27.5421H27.6336H27.725H27.8163H27.9075H27.9986H28.0896H28.1805H28.2713H28.3619H28.4525H28.5429H28.6332H28.7234H28.8134H28.9034H28.9932H29.0829H29.1724H29.2618H29.3511H29.4402H29.5292H29.6181H29.7068H29.7954H29.8838H29.9721H30.0602H30.1481H30.2359H30.3236H30.4111H30.4984H30.5856H30.6725H30.7594H30.846H30.9325H31.0188H31.1049H31.1909H31.2767H31.3622H31.4476H31.5329H31.6179H31.7027H31.7873H31.8718H31.956H32.0401H32.1239H32.2076H32.291H32.3742H32.4573H32.5401H32.6226H32.705H32.7872H32.8691H32.9508H33.0323H33.1136H33.1946H33.2754H33.356H33.4363H33.5165H33.5963H33.6759H33.7553H33.8345H33.9133H33.992H34.0704H34.1485H34.2264H34.304H34.3814H34.4585H34.5353H34.6119H34.6882H34.7642H34.84H34.9155H34.9907H35.0657H35.1403H35.2147H35.2888H35.3626H35.4361H35.5094H35.5823H35.6549H35.7273H35.7993H35.8711H35.9425H36.0137H36.0845H36.155H36.2253H36.2952H36.3647H36.434H36.503H36.5716H36.6399H36.7079H36.7756H36.8429H36.9099H36.9765H37.0429H37.1089H37.1745H37.2398H37.3048H37.3694H37.4337H37.4976H37.5612H37.6244H37.6873H37.7498H37.8119H37.8737H37.9351H37.9962H38.0569H38.1172H38.1771H38.2367H38.2959H38.3547H38.4131H38.4712H38.5289H38.5861H38.643H38.6995H38.7556H38.8113H38.8667H38.9216H38.9761H39.0302H39.0839H39.1372H39.1901H39.2426H39.2946H39.3463H39.3975H39.4483H39.4987H39.5487H39.5982H39.6473H39.696H39.7443H39.7921H39.8395H39.8864H39.9329H39.979H40.0246H40.0698H40.1145H40.1588H40.2026H40.246H40.2889H40.3313H40.3733H40.4148H40.4559H40.4965H40.5366H40.5763H40.6154H40.6542H40.6924H40.7301H40.7674H40.8042H40.8405H40.8763H40.9116H40.9465H40.9808H41.0146H41.048H41.0808H41.1132H41.145H41.1763H41.2072H41.2375H41.2673H41.2966H41.3253H41.3536H41.3813H41.4085H41.4352H41.4614H41.487H41.5121H41.5367H41.5607H41.5842H41.6072H41.6296H41.6515H41.6728H41.6936H41.7138H41.7335H41.7526H41.7712H41.7892H41.8067H41.8236H41.8399H41.8557H41.8709H41.8855H41.8996H41.913H41.9259H41.9383H41.95H41.9612H41.9718H41.9818H41.9912H42C42.6745 34.9848 43.2879 34.4832 43.2879 33.697V29.2727V28.7727H42.7879H5.21214ZM42.7879 28.6213H43.2879V28.1213V6C43.2879 5.29969 42.7005 4.71214 42 4.71214H6C5.29969 4.71214 4.71214 5.29955 4.71214 6V28.1213V28.6213H5.21214H42.7879Z" fill="black" stroke="#5B5B5B"/>
<path d="M24 30.5303C24.7004 30.5303 25.2879 31.1179 25.2879 31.8182C25.2879 32.5186 24.7003 33.1061 24 33.1061C23.2997 33.1061 22.7122 32.5186 22.7121 31.8183L24 30.5303ZM24 30.5303C23.2997 30.5303 22.7121 31.1177 22.7121 31.8182L24 30.5303ZM25.5 31.8182C25.5 32.633 24.8148 33.3182 24 33.3182C23.1852 33.3182 22.5 32.633 22.5 31.8182C22.5 31.0034 23.1852 30.3182 24 30.3182C24.8148 30.3182 25.5 31.0034 25.5 31.8182Z" fill="black" stroke="#5B5B5B"/>
<path d="M35.2117 17.4546L35.2117 17.4546C35.2127 17.4588 35.214 17.4682 35.2069 17.4848C35.2032 17.4932 35.1981 17.5017 35.1919 17.5092C35.1862 17.5161 35.181 17.5204 35.1778 17.5227L33.7872 18.4297L33.2806 18.7601L33.212 18.6873L33.2069 18.6819L33.2016 18.6766C33.1957 18.6707 33.1677 18.63 33.1664 18.5511C33.1717 18.5472 33.1782 18.5425 33.1861 18.5372C33.1861 18.5372 33.1861 18.5372 33.1861 18.5372L34.0952 17.9312L34.989 17.3354L33.9576 17.0351L29.1698 15.6411L28.2954 15.3865L28.55 16.261L29.9439 21.0488L30.2442 22.0802L30.84 21.1864L31.4461 20.2773L31.4576 20.26C31.4597 20.2589 31.4615 20.2581 31.463 20.2575H31.5149C31.5325 20.2575 31.5418 20.259 31.5451 20.2596C31.548 20.2602 31.5479 20.2604 31.5467 20.2599C31.5433 20.2584 31.5545 20.2618 31.5856 20.2929L33.6462 22.3535L33.9998 22.7071L34.3533 22.3535L35.2018 21.505L35.5451 21.1617L35.212 20.8085L33.5425 19.0378L33.7068 19.2021L35.7068 21.2021C35.7372 21.2325 35.7421 21.258 35.7421 21.2727C35.7421 21.2874 35.7372 21.313 35.7068 21.3434L34.0098 23.0404C34.0087 23.0415 34.0045 23.0454 33.996 23.0507C33.9876 23.0561 33.9771 23.0614 33.9655 23.0661C33.9552 23.0702 33.946 23.0729 33.9391 23.0745C33.9322 23.0729 33.923 23.0702 33.9127 23.0661C33.9011 23.0614 33.8906 23.0561 33.8822 23.0507C33.8737 23.0454 33.8695 23.0415 33.8684 23.0404L31.8684 21.0404L31.4326 20.6046L31.096 21.1208L30.1891 22.5115C30.1868 22.5147 30.1824 22.5199 30.1756 22.5256C30.1681 22.5317 30.1597 22.5369 30.1512 22.5405C30.1347 22.5476 30.1252 22.5463 30.121 22.5453L30.0613 22.5303H30.0186C30.0132 22.522 30.0057 22.5075 30 22.4848L29.9982 22.4775L29.9961 22.4703L27.9986 15.3881C27.993 15.3642 27.9922 15.3502 27.9922 15.3438C27.9922 15.3403 27.9924 15.3385 27.9925 15.3378L27.9928 15.3365L27.9928 15.3365C27.9929 15.3362 27.9944 15.331 28.0017 15.3199C28.0096 15.3078 28.0242 15.2888 28.0503 15.2627L28.0504 15.2626C28.0827 15.2303 28.1148 15.2144 28.1371 15.2081C28.1451 15.2058 28.1506 15.205 28.1538 15.2047L28.1558 15.2053L28.167 15.2085L35.1546 17.1794C35.1583 17.1961 35.1624 17.216 35.1671 17.2401C35.1688 17.2492 35.1707 17.2594 35.1728 17.2703C35.1825 17.3215 35.1957 17.3907 35.2117 17.4546Z" fill="black" stroke="#5B5B5B"/>
<path d="M12.5455 11.8636C12.5242 11.8636 12.4937 11.8535 12.47 11.8314C12.4513 11.8139 12.4395 11.7923 12.4395 11.7575C12.4395 11.7223 12.4453 11.7004 12.4497 11.689C12.4539 11.678 12.4579 11.6735 12.4597 11.6717C12.4614 11.67 12.4659 11.666 12.4769 11.6617C12.4884 11.6573 12.5102 11.6515 12.5455 11.6515H20.3636C20.3989 11.6515 20.4207 11.6573 20.4322 11.6617C20.4432 11.666 20.4477 11.67 20.4494 11.6717C20.4512 11.6735 20.4552 11.678 20.4594 11.689C20.4638 11.7004 20.4697 11.7223 20.4697 11.7575C20.4697 11.7928 20.4638 11.8147 20.4594 11.8262C20.4552 11.8372 20.4512 11.8416 20.4495 11.8434C20.4477 11.8451 20.4433 11.8491 20.4322 11.8533C20.4208 11.8578 20.3989 11.8636 20.3636 11.8636H12.5455Z" fill="black" stroke="#5B5B5B"/>
<path d="M12.5455 14.803H20.3636C20.3989 14.803 20.4208 14.8088 20.4322 14.8133C20.4433 14.8175 20.4477 14.8215 20.4495 14.8232C20.4512 14.825 20.4552 14.8294 20.4594 14.8404C20.4638 14.8519 20.4697 14.8738 20.4697 14.9091C20.4697 14.9443 20.4638 14.9662 20.4594 14.9777C20.4552 14.9887 20.4512 14.9931 20.4495 14.9949C20.4477 14.9966 20.4433 15.0006 20.4322 15.0048C20.4208 15.0093 20.3989 15.0151 20.3636 15.0151H12.5455C12.5243 15.0151 12.4937 15.005 12.47 14.9829C12.4513 14.9654 12.4395 14.9437 12.4395 14.9091C12.4395 14.8738 12.4453 14.8519 12.4497 14.8404C12.4539 14.8294 12.4579 14.825 12.4597 14.8232C12.4614 14.8215 12.4659 14.8175 12.4769 14.8133C12.4883 14.8088 12.5102 14.803 12.5455 14.803Z" fill="black" stroke="#5B5B5B"/>
<path d="M20.4697 17.9999V18C20.4697 18.0352 20.4638 18.0571 20.4594 18.0686C20.4552 18.0796 20.4512 18.0841 20.4495 18.0858C20.4477 18.0875 20.4433 18.0915 20.4322 18.0958C20.4208 18.1002 20.3989 18.106 20.3636 18.106H12.5455C12.5242 18.106 12.4937 18.0959 12.47 18.0738C12.4513 18.0564 12.4395 18.0347 12.4395 18C12.4395 17.9647 12.4453 17.9428 12.4497 17.9314C12.4539 17.9204 12.4579 17.9159 12.4597 17.9142C12.4614 17.9124 12.4659 17.9084 12.4769 17.9042C12.4883 17.8998 12.5102 17.894 12.5455 17.894H20.3636C20.3989 17.894 20.4208 17.8998 20.4323 17.9042C20.4433 17.9084 20.4478 17.9124 20.4495 17.9142C20.4512 17.9159 20.4552 17.9204 20.4595 17.9314C20.4639 17.9428 20.4697 17.9646 20.4697 17.9999Z" fill="black" stroke="#5B5B5B"/>
<path d="M12.5455 21.0455H20.3636C20.3989 21.0455 20.4208 21.0513 20.4322 21.0557C20.4433 21.0599 20.4477 21.0639 20.4495 21.0657C20.4512 21.0674 20.4552 21.0719 20.4594 21.0829C20.4638 21.0944 20.4697 21.1162 20.4697 21.1515C20.4697 21.1868 20.4638 21.2086 20.4594 21.2201C20.4552 21.2311 20.4512 21.2356 20.4495 21.2373C20.4477 21.239 20.4433 21.2431 20.4322 21.2473C20.4208 21.2517 20.3989 21.2575 20.3636 21.2575H12.5455C12.5102 21.2575 12.4884 21.2517 12.4769 21.2473C12.4659 21.2431 12.4614 21.239 12.4597 21.2373C12.4579 21.2356 12.4539 21.2311 12.4497 21.2201C12.4453 21.2086 12.4395 21.1867 12.4395 21.1515C12.4395 21.1162 12.4453 21.0944 12.4497 21.0829C12.4539 21.0719 12.4579 21.0674 12.4597 21.0657C12.4614 21.0639 12.4659 21.0599 12.4769 21.0557C12.4883 21.0513 12.5102 21.0455 12.5455 21.0455Z" fill="black" stroke="#5B5B5B"/>
<path d="M27.273 11.8636C27.2378 11.8636 27.2159 11.8578 27.2044 11.8533C27.1934 11.8491 27.1889 11.8451 27.1872 11.8434C27.1855 11.8416 27.1815 11.8372 27.1772 11.8262C27.1728 11.8147 27.167 11.7928 27.167 11.7575C27.167 11.7223 27.1728 11.7004 27.1772 11.689C27.1815 11.678 27.1855 11.6735 27.1872 11.6717C27.189 11.67 27.1934 11.666 27.2044 11.6617C27.2159 11.6573 27.2378 11.6515 27.273 11.6515H35.1518C35.187 11.6515 35.2089 11.6573 35.2204 11.6617C35.2314 11.666 35.2358 11.67 35.2376 11.6717C35.2393 11.6735 35.2433 11.678 35.2476 11.689C35.252 11.7004 35.2578 11.7223 35.2578 11.7575C35.2578 11.7928 35.252 11.8147 35.2476 11.8262C35.2433 11.8372 35.2393 11.8416 35.2376 11.8434C35.2359 11.8451 35.2314 11.8491 35.2204 11.8533C35.2089 11.8578 35.1871 11.8636 35.1518 11.8636H27.273Z" fill="black" stroke="#5B5B5B"/>
</svg>
