<svg width="48" height="48" viewBox="0 0 48 48" fill="none" xmlns="http://www.w3.org/2000/svg">
<path fill-rule="evenodd" clip-rule="evenodd" d="M42.315 29.3112L37.5346 27.399C37.2271 27.2761 37.0284 26.9826 37.0284 26.6514V26.3334C37.0284 25.6352 37.4196 25.0088 37.9624 24.5699C39.1595 23.6024 40.0053 22.2473 40.3441 20.7544C40.457 20.2569 40.5142 19.7439 40.5142 19.2295C40.5142 15.7979 38.0286 15.3044 35.6249 14.8272C34.0876 14.522 32.498 14.2064 31.23 13.1921C31.0913 13.0811 30.9097 13.039 30.7362 13.077C30.5627 13.1148 30.4154 13.2293 30.3354 13.388C30.3321 13.3945 30.002 14.0443 29.4437 14.677C28.9709 15.2129 28.2284 15.8517 27.3761 15.8517C26.9864 15.8517 26.571 15.5836 26.571 15.1939V15.0465C26.571 11.1428 29.7469 7.96694 33.6506 7.96694C37.5543 7.96694 40.7302 11.1428 40.7302 15.0465V16.4409C40.7302 16.7662 40.994 17.03 41.3193 17.03C41.6447 17.03 41.9085 16.7662 41.9085 16.4409V15.0465C41.9085 12.1253 40.3835 9.55387 38.088 8.08548C37.851 7.93389 37.7255 7.6591 37.7255 7.37779C37.7255 5.51529 35.8975 4 33.6506 4C31.4036 4 29.5756 5.51529 29.5756 7.37779C29.5756 7.65912 29.45 7.934 29.213 8.08561C26.9176 9.554 25.3927 12.1254 25.3927 15.0465V17.8352C25.3927 18.363 25.6 18.8434 25.9374 19.1992C26.365 19.6499 26.8196 20.1485 26.9571 20.7544C27.2959 22.2473 28.1418 23.6024 29.3388 24.5699C29.8817 25.0088 30.2728 25.6352 30.2728 26.3333V26.6514C30.2728 26.9826 30.0741 27.276 29.7667 27.399L24.9863 29.3112C23.9627 29.7206 23.3013 30.6976 23.3013 31.8V35.2646C23.3013 35.4209 23.3634 35.5708 23.4739 35.6813C23.5844 35.7917 23.7342 35.8537 23.8904 35.8537H23.8907C23.9502 35.8537 23.9984 35.9019 23.9984 35.9614V41.5387C23.9984 41.864 24.2622 42.1278 24.5876 42.1278C24.9129 42.1278 25.1767 41.864 25.1767 41.5387V36.6586C25.1767 36.2139 25.5372 35.8534 25.9819 35.8534C26.4266 35.8534 26.7871 36.2139 26.7871 36.6586V41.5387C26.7871 41.864 27.0508 42.1278 27.3762 42.1278C27.7016 42.1278 27.9654 41.864 27.9654 41.5387V33.8699C27.9654 33.5446 27.7016 33.2808 27.3762 33.2808C27.0508 33.2808 26.7871 33.5446 26.7871 33.8699C26.7871 34.3146 26.4266 34.6751 25.9819 34.6751H24.5876H24.5873C24.5278 34.6751 24.4796 34.6269 24.4796 34.5674V31.8C24.4796 31.1821 24.8503 30.6346 25.4239 30.4052L26.7517 29.8741C28.1266 29.3241 29.6735 29.891 30.6917 30.9662C31.3821 31.6953 32.279 32.4485 33.3871 33.0025C33.4701 33.044 33.5603 33.0648 33.6506 33.0648C33.7408 33.0648 33.8311 33.044 33.914 33.0025C35.022 32.4485 35.919 31.6954 36.6093 30.9664C37.6276 29.8911 39.1747 29.3242 40.5496 29.8742L41.8773 30.4053C42.451 30.6347 42.8217 31.1823 42.8217 31.8001V34.5672C42.8217 34.6268 42.7733 34.6752 42.7136 34.6752H41.3193C40.8746 34.6752 40.5142 34.3147 40.5142 33.87C40.5142 33.5446 40.2504 33.2809 39.925 33.2809C39.5996 33.2809 39.3359 33.5446 39.3359 33.87V41.5388C39.3359 41.8641 39.5996 42.1279 39.925 42.1279C40.2504 42.1279 40.5142 41.8641 40.5142 41.5388V36.6586C40.5142 36.214 40.8746 35.8535 41.3193 35.8535C41.764 35.8535 42.1245 36.214 42.1245 36.6586V41.5388C42.1245 41.8641 42.3883 42.1279 42.7136 42.1279C43.039 42.1279 43.3028 41.8641 43.3028 41.5388V35.9615C43.3028 35.9018 43.3512 35.8535 43.4108 35.8535C43.7362 35.8535 44 35.5897 44 35.2643V31.8001C44 30.6977 43.3386 29.7207 42.315 29.3112ZM33.6507 5.17845C33.9966 5.17845 34.3285 5.22474 34.6362 5.30959C35.9906 5.68301 35.0555 6.78879 33.6507 6.78879C32.2458 6.78879 31.3107 5.683 32.6651 5.30959C32.9728 5.22474 33.3047 5.17845 33.6507 5.17845ZM30.0795 23.6538C29.0875 22.8518 28.3867 21.7296 28.1062 20.4937C28.0127 20.0817 27.9654 19.6564 27.9654 19.2297C27.9654 18.9043 27.7016 18.6405 27.3762 18.6405C26.9322 18.6405 26.571 18.2793 26.571 17.8353C26.571 17.3914 26.9322 17.0302 27.3762 17.0302C27.9529 17.0302 28.4784 16.8616 28.9454 16.6029C30.3927 15.8011 32.1988 15.2296 33.8025 15.6369C34.3436 15.7743 34.8804 15.8809 35.3951 15.9831L35.3954 15.9832C37.9847 16.4973 39.3359 16.8751 39.3359 19.2297C39.3359 19.6565 39.2885 20.0818 39.1951 20.4938C38.9147 21.7297 38.2138 22.8519 37.2218 23.6538C36.201 24.4789 34.9661 24.915 33.6507 24.915C32.3352 24.915 31.1003 24.4789 30.0795 23.6538ZM34.9245 30.9325C34.1844 31.5503 33.1169 31.5503 32.3768 30.9325C32.1234 30.721 31.8899 30.5024 31.6764 30.2844C30.8263 29.4164 31.4512 27.8665 31.4512 26.6515C31.4512 26.1985 31.8976 25.8788 32.3421 25.9658C32.7714 26.0498 33.2096 26.0932 33.6507 26.0932C34.0917 26.0932 34.5299 26.0498 34.9592 25.9658C35.4037 25.8788 35.8501 26.1985 35.8501 26.6515C35.8501 27.8665 36.4751 29.4163 35.625 30.2843C35.4115 30.5023 35.1779 30.721 34.9245 30.9325ZM7.68556 27.332L9.07988 30.1206C9.1208 30.2024 9.14209 30.2926 9.14209 30.3841V41.5386C9.14209 41.864 8.87831 42.1278 8.55294 42.1278C8.22757 42.1278 7.96379 41.864 7.96379 41.5386V31.2314C7.96379 30.7657 7.85536 30.3064 7.64709 29.8898L6.63169 27.8589C6.48613 27.5679 6.60412 27.214 6.89515 27.0685C7.18619 26.923 7.54008 27.041 7.68556 27.332ZM21.9692 27.332C22.1147 27.041 22.4686 26.923 22.7596 27.0685C23.0507 27.2141 23.1687 27.568 23.0231 27.8589L22.0077 29.8898C21.7994 30.3064 21.691 30.7657 21.691 31.2314V41.5386C21.691 41.864 21.4272 42.1278 21.1018 42.1278C20.7765 42.1278 20.5127 41.864 20.5127 41.5386V30.3841C20.5127 30.2926 20.534 30.2025 20.5749 30.1206L21.9692 27.332ZM19.5387 22.4461C19.9261 23.0271 20.504 23.4548 21.1729 23.6554L23.9635 24.4926C25.1061 24.8354 25.8738 25.8672 25.8738 27.0602C25.8738 27.3856 25.6101 27.6493 25.2847 27.6493C24.9593 27.6493 24.6955 27.3856 24.6955 27.0602C24.6955 26.3916 24.2652 25.8133 23.6249 25.6212L21.3502 24.9387C21.1691 24.8844 20.9828 25.0274 20.8645 25.1748L18.498 28.133C18.2432 28.4515 17.8714 28.6179 17.4948 28.6179C17.226 28.6179 16.9548 28.5331 16.7218 28.3584C16.184 27.955 15.4164 28.3388 15.4164 29.0112V41.5386C15.4164 41.8639 15.1526 42.1277 14.8272 42.1277C14.5019 42.1277 14.2381 41.8639 14.2381 41.5386V29.0112C14.2381 28.3388 13.4705 27.955 12.9326 28.3584C12.6997 28.5331 12.4284 28.6179 12.1596 28.6179C11.7831 28.6179 11.4113 28.4516 11.1564 28.133L8.78994 25.1748C8.67188 25.0273 8.48545 24.8844 8.30447 24.9387L6.02974 25.6212C5.38937 25.8133 4.95906 26.3916 4.95906 27.0602V41.5387C4.95906 41.8641 4.69528 42.1279 4.36991 42.1279C4.04454 42.1279 3.78076 41.8641 3.78076 41.5387V27.0602C3.78076 25.8672 4.54846 24.8354 5.69102 24.4925L8.48167 23.6554C9.15052 23.4547 9.72842 23.027 10.1158 22.446L10.1541 22.3886C10.2469 22.2494 10.3943 22.1564 10.5597 22.1323C10.6593 22.1177 10.7524 22.0435 10.7524 21.9429V21.5195C10.7524 21.3571 10.6746 21.2054 10.5478 21.104C9.6174 20.3598 8.88377 19.3794 8.43952 18.2543C7.98294 17.0979 6.91813 16.0253 6.62506 14.8171C6.58868 14.6671 6.5694 14.5105 6.5694 14.3495C6.5694 14.2397 6.57875 14.131 6.59687 14.0244C6.74379 13.1598 7.26656 12.3423 7.26656 11.4653V9.46939C7.26656 6.45357 9.72001 4.00012 12.7358 4.00012H18.3131C19.1481 4.00012 19.8986 4.3793 20.3907 4.98862C20.8459 5.55234 21.2698 6.1754 21.7067 6.75345C22.1413 7.32839 22.388 8.03457 22.388 8.77223V11.4653C22.388 12.3423 22.9107 13.1598 23.0577 14.0244C23.0758 14.131 23.0851 14.2397 23.0851 14.3495C23.0851 14.5105 23.0658 14.6671 23.0295 14.8171C22.7364 16.0253 21.6716 17.0979 21.215 18.2543C20.7708 19.3793 20.0372 20.3596 19.1069 21.1038C18.98 21.2053 18.9022 21.3572 18.9022 21.5197V21.943C18.9022 22.0436 18.9952 22.1179 19.0948 22.1324C19.2602 22.1564 19.4077 22.2495 19.5004 22.3886L19.5387 22.4461ZM8.55287 15.1547C8.87823 15.1547 9.14202 15.4185 9.14202 15.7438C9.14202 18.8786 11.6923 21.4291 14.8272 21.4291C17.9621 21.4291 20.5125 18.8787 20.5125 15.7438C20.5125 15.4185 20.7763 15.1547 21.1017 15.1547C21.5456 15.1547 21.9068 14.7935 21.9068 14.3495C21.9068 14.0637 21.7557 13.8051 21.5025 13.6578C21.3212 13.5523 21.2097 13.3583 21.2097 13.1486V8.77223C21.2097 7.98842 20.7776 7.25788 20.082 6.86558C19.9255 6.77729 19.8178 6.62231 19.7896 6.44478C19.6731 5.71101 19.0521 5.17842 18.3131 5.17842H12.7358C10.3698 5.17842 8.44486 7.10336 8.44486 9.46939V12.2615C8.44486 12.3202 8.49415 12.366 8.55287 12.366H9.37555C9.42685 12.366 9.47139 12.3295 9.48144 12.2792L9.91011 10.1362C9.98041 9.78462 10.1959 9.47685 10.5013 9.29178C10.8099 9.10474 11.1874 9.05604 11.5369 9.15792C12.4641 9.42838 13.6327 9.57732 14.8272 9.57732C16.3491 9.57732 17.791 9.33977 18.7832 8.92564C19.0836 8.80043 19.4286 8.94214 19.5539 9.24237C19.6792 9.54268 19.5374 9.88768 19.2372 10.0131C18.0899 10.492 16.5237 10.7557 14.8273 10.7557C13.5053 10.7557 12.2534 10.5944 11.2069 10.2892C11.1637 10.2765 11.1315 10.2878 11.112 10.2995C11.0872 10.3145 11.0716 10.3373 11.0656 10.3672L10.637 12.5103C10.5172 13.1095 9.9867 13.5443 9.37563 13.5443H8.55287C8.42569 13.5443 8.30134 13.5758 8.18924 13.6327C8.18591 13.635 8.18261 13.6373 8.17931 13.6397C8.17041 13.6459 8.16152 13.6522 8.15201 13.6578C7.89883 13.8051 7.7477 14.0637 7.7477 14.3495C7.7477 14.7935 8.10888 15.1547 8.55287 15.1547ZM12.0766 27.3969C12.1133 27.4427 12.1787 27.4512 12.2257 27.4159C13.069 26.7834 13.1011 25.5295 12.2913 24.8547L11.4325 24.139C11.079 23.8445 10.5483 23.9215 10.2931 24.3043C10.1061 24.5847 10.1221 24.9539 10.3327 25.2171L12.0766 27.3969ZM11.9307 22.778C11.9307 22.9316 11.9989 23.0773 12.1169 23.1756L12.9729 23.889C14.0471 24.7842 15.6075 24.7842 16.6817 23.889L17.5377 23.1756C17.6557 23.0773 17.724 22.9316 17.724 22.778C17.724 22.3992 17.3282 22.1461 16.9685 22.2647C16.2945 22.4869 15.5748 22.6074 14.8273 22.6074C14.0798 22.6074 13.3601 22.4868 12.6861 22.2646C12.3263 22.146 11.9307 22.3992 11.9307 22.778ZM17.4289 27.4159C17.4759 27.4511 17.5413 27.4428 17.578 27.3969L19.3219 25.2171C19.5325 24.954 19.5485 24.5848 19.3615 24.3044C19.1063 23.9216 18.5756 23.8446 18.2221 24.1391L17.3633 24.8548C16.5535 25.5296 16.5856 26.7834 17.4289 27.4159Z" fill="#5B5B5B"/>
<path d="M37.5346 27.399L37.6274 27.1669L37.6274 27.1669L37.5346 27.399ZM42.315 29.3112L42.4078 29.0791L42.4078 29.0791L42.315 29.3112ZM40.3441 20.7544L40.5879 20.8097V20.8097L40.3441 20.7544ZM35.6249 14.8272L35.6735 14.582H35.6735L35.6249 14.8272ZM31.23 13.1921L31.0738 13.3873L31.0739 13.3874L31.23 13.1921ZM30.7362 13.077L30.7895 13.3212L30.7897 13.3212L30.7362 13.077ZM30.3354 13.388L30.5585 13.5008L30.5586 13.5005L30.3354 13.388ZM29.4437 14.677L29.2563 14.5116L29.2563 14.5116L29.4437 14.677ZM29.7667 27.399L29.8595 27.6311L29.8595 27.6311L29.7667 27.399ZM24.9863 29.3112L25.0792 29.5433L25.0792 29.5433L24.9863 29.3112ZM23.4739 35.6813L23.2971 35.8581L23.2972 35.8581L23.4739 35.6813ZM25.4239 30.4052L25.5168 30.6373H25.5168L25.4239 30.4052ZM33.3871 33.0025L33.4989 32.7789H33.4989L33.3871 33.0025ZM33.914 33.0025L33.8022 32.7789H33.8022L33.914 33.0025ZM41.8773 30.4053L41.7844 30.6374L41.7845 30.6374L41.8773 30.4053ZM44 31.8001L43.75 31.8001V31.8001H44ZM28.1062 20.4937L27.8624 20.549L27.8624 20.5491L28.1062 20.4937ZM30.0795 23.6538L29.9224 23.8482L29.9224 23.8482L30.0795 23.6538ZM35.3951 15.9831L35.4449 15.7382L35.4438 15.7379L35.3951 15.9831ZM35.3954 15.9832L35.3456 16.2282L35.3467 16.2284L35.3954 15.9832ZM39.1951 20.4938L39.4389 20.5491L39.4389 20.5491L39.1951 20.4938ZM37.2218 23.6538L37.0646 23.4593L37.0646 23.4593L37.2218 23.6538ZM9.07988 30.1206L8.85627 30.2324L8.85631 30.2325L9.07988 30.1206ZM7.68556 27.332L7.46194 27.4438L7.46195 27.4438L7.68556 27.332ZM6.63169 27.8589L6.8553 27.7471L6.85528 27.7471L6.63169 27.8589ZM6.89515 27.0685L7.00693 27.2922L7.00698 27.2921L6.89515 27.0685ZM22.7596 27.0685L22.6478 27.2921L22.7596 27.0685ZM21.9692 27.332L22.1928 27.4438L22.1929 27.4438L21.9692 27.332ZM23.0231 27.8589L22.7995 27.7471L22.7995 27.7471L23.0231 27.8589ZM20.5749 30.1206L20.3513 30.0088L20.3513 30.0088L20.5749 30.1206ZM23.9635 24.4926L24.0353 24.2531L24.0353 24.2531L23.9635 24.4926ZM23.6249 25.6212L23.6967 25.3817L23.6967 25.3817L23.6249 25.6212ZM18.498 28.133L18.6932 28.2892L18.6932 28.2892L18.498 28.133ZM11.1564 28.133L10.9612 28.2892L10.9612 28.2892L11.1564 28.133ZM6.02974 25.6212L5.9579 25.3817L5.95789 25.3817L6.02974 25.6212ZM5.69102 24.4925L5.61918 24.2531L5.61916 24.2531L5.69102 24.4925ZM10.1541 22.3886L9.9461 22.2499L9.94609 22.2499L10.1541 22.3886ZM19.5004 22.3886L19.2924 22.5273L19.2924 22.5273L19.5004 22.3886ZM21.5025 13.6578L21.6283 13.4417L21.6283 13.4417L21.5025 13.6578ZM20.082 6.86558L20.2048 6.64783L20.2048 6.64783L20.082 6.86558ZM19.7896 6.44478L19.5427 6.48397L19.5427 6.484L19.7896 6.44478ZM9.48144 12.2792L9.2363 12.2302L9.2363 12.2302L9.48144 12.2792ZM9.91011 10.1362L10.1553 10.1853L10.1553 10.1852L9.91011 10.1362ZM10.5013 9.29178L10.6309 9.50559L10.6309 9.50558L10.5013 9.29178ZM11.5369 9.15792L11.6069 8.91792L11.6068 8.91791L11.5369 9.15792ZM18.7832 8.92564L18.6871 8.69489L18.6869 8.69493L18.7832 8.92564ZM19.5539 9.24237L19.7847 9.14611L19.7846 9.14603L19.5539 9.24237ZM19.2372 10.0131L19.3335 10.2438L19.3335 10.2437L19.2372 10.0131ZM11.2069 10.2892L11.1367 10.5291L11.1369 10.5292L11.2069 10.2892ZM11.112 10.2995L10.9826 10.0856L10.9824 10.0858L11.112 10.2995ZM11.0656 10.3672L11.3108 10.4163L11.3108 10.4162L11.0656 10.3672ZM10.637 12.5103L10.3918 12.4613L10.3918 12.4613L10.637 12.5103ZM8.18924 13.6327L8.07601 13.4098L8.06123 13.4173L8.04757 13.4267L8.18924 13.6327ZM8.17931 13.6397L8.32343 13.8439L8.32344 13.8439L8.17931 13.6397ZM8.15201 13.6578L8.27777 13.8738L8.27815 13.8736L8.15201 13.6578ZM12.0766 27.3969L11.8814 27.5531L11.8815 27.5532L12.0766 27.3969ZM17.578 27.3969L17.3828 27.2408L17.3828 27.2408L17.578 27.3969ZM12.6861 22.2646L12.6079 22.5021L12.6861 22.2646ZM16.9685 22.2647L17.0467 22.5021L16.9685 22.2647ZM12.1169 23.1756L11.9568 23.3677L12.1169 23.1756ZM19.1069 21.1038L18.9507 20.9086L19.1069 21.1038ZM12.2913 24.8547L12.4514 24.6627L12.2913 24.8547ZM21.7067 6.75345L21.5073 6.90419L21.7067 6.75345ZM10.5478 21.104L10.3917 21.2992L10.5478 21.104ZM21.3502 24.9387L21.422 24.6993L21.3502 24.9387ZM18.2221 24.1391L18.0621 23.9471L18.2221 24.1391ZM21.1729 23.6554L21.2447 23.416L21.1729 23.6554ZM19.5387 22.4461L19.3307 22.5848L19.5387 22.4461ZM10.3327 25.2171L10.5279 25.0609L10.3327 25.2171ZM17.5377 23.1756L17.6978 23.3677L17.5377 23.1756ZM22.0077 29.8898L21.7841 29.778L22.0077 29.8898ZM32.3421 25.9658L32.2941 26.2112L32.3421 25.9658ZM28.9454 16.6029L28.8242 16.3842L28.9454 16.6029ZM33.8025 15.6369L33.7409 15.8792L33.8025 15.6369ZM36.6093 30.9664L36.4278 30.7945L36.6093 30.9664ZM40.5496 29.8742L40.6425 29.6421L40.5496 29.8742ZM34.9592 25.9658L34.9111 25.7205L34.9592 25.9658ZM26.7517 29.8741L26.6589 29.642L26.7517 29.8741ZM23.0295 14.8171L23.2724 14.876L23.0295 14.8171ZM21.215 18.2543L20.9825 18.1624L21.215 18.2543ZM25.9374 19.1992L25.756 19.3712L25.9374 19.1992ZM8.30447 24.9387L8.37631 25.1782L8.30447 24.9387ZM32.3768 30.9325L32.2166 31.1245L32.3768 30.9325ZM34.9245 30.9325L34.7643 30.7406L34.9245 30.9325ZM6.59687 14.0244L6.3504 13.9825L6.59687 14.0244ZM7.64709 29.8898L7.42348 30.0016L7.64709 29.8898ZM12.9729 23.889L12.8129 24.081L12.9729 23.889ZM38.088 8.08548L37.9533 8.29608L38.088 8.08548ZM32.6651 5.30959L32.5986 5.06859L32.6651 5.30959ZM31.6764 30.2844L31.4978 30.4593L31.6764 30.2844ZM11.4325 24.139L11.5925 23.947L11.4325 24.139ZM29.213 8.08561L29.0783 7.87501L29.213 8.08561ZM10.1158 22.446L10.3238 22.5847L10.1158 22.446ZM35.625 30.2843L35.4464 30.1094L35.625 30.2843ZM37.4417 27.6311L42.2221 29.5434L42.4078 29.0791L37.6274 27.1669L37.4417 27.6311ZM36.7784 26.6514C36.7784 27.0848 37.0393 27.4703 37.4417 27.6312L37.6274 27.1669C37.4149 27.0819 37.2784 26.8804 37.2784 26.6514H36.7784ZM36.7784 26.3334V26.6514H37.2784V26.3334H36.7784ZM40.1003 20.699C39.774 22.1368 38.9589 23.4431 37.8053 24.3755L38.1196 24.7644C39.3601 23.7617 40.2366 22.3577 40.5879 20.8097L40.1003 20.699ZM40.2642 19.2295C40.2642 19.7254 40.209 20.2199 40.1003 20.6991L40.5879 20.8097C40.7049 20.2939 40.7642 19.7623 40.7642 19.2295H40.2642ZM35.5762 15.0724C36.791 15.3136 37.9599 15.5494 38.8327 16.1287C39.2623 16.4139 39.6165 16.7809 39.8651 17.2737C40.1144 17.7678 40.2642 18.4018 40.2642 19.2295H40.7642C40.7642 18.3414 40.6033 17.6268 40.3115 17.0484C40.0189 16.4686 39.6015 16.039 39.1092 15.7122C38.1382 15.0676 36.8624 14.818 35.6735 14.582L35.5762 15.0724ZM31.0739 13.3874C32.3973 14.446 34.0499 14.7694 35.5762 15.0724L35.6735 14.582C34.1252 14.2746 32.5986 13.9668 31.3862 12.9969L31.0739 13.3874ZM30.7897 13.3212C30.8898 13.2993 30.9943 13.3237 31.0738 13.3873L31.3862 12.9969C31.1883 12.8386 30.9296 12.7788 30.6828 12.8328L30.7897 13.3212ZM30.5586 13.5005C30.6048 13.4089 30.6898 13.343 30.7895 13.3212L30.683 12.8327C30.4356 12.8867 30.2259 13.0497 30.1121 13.2755L30.5586 13.5005ZM29.6312 14.8424C30.21 14.1864 30.5513 13.515 30.5585 13.5008L30.1123 13.2751C30.1129 13.274 29.794 13.9021 29.2563 14.5116L29.6312 14.8424ZM27.3761 16.1017C28.3454 16.1017 29.1528 15.3846 29.6312 14.8424L29.2563 14.5116C28.789 15.0412 28.1113 15.6017 27.3761 15.6017V16.1017ZM26.321 15.0465V15.1939H26.821V15.0465H26.321ZM33.6506 7.71694C29.6088 7.71694 26.321 11.0048 26.321 15.0465H26.821C26.821 11.2809 29.8849 8.21694 33.6506 8.21694V7.71694ZM40.9802 15.0465C40.9802 11.0048 37.6923 7.71694 33.6506 7.71694V8.21694C37.4162 8.21694 40.4802 11.2809 40.4802 15.0465H40.9802ZM40.9802 16.4409V15.0465H40.4802V16.4409H40.9802ZM41.3193 16.78C41.132 16.78 40.9802 16.6282 40.9802 16.4409H40.4802C40.4802 16.9043 40.8559 17.28 41.3193 17.28V16.78ZM41.6585 16.4409C41.6585 16.6282 41.5066 16.78 41.3193 16.78V17.28C41.7828 17.28 42.1585 16.9043 42.1585 16.4409H41.6585ZM41.6585 15.0465V16.4409H42.1585V15.0465H41.6585ZM37.9533 8.29608C40.1803 9.72063 41.6585 12.2144 41.6585 15.0465H42.1585C42.1585 12.0361 40.5868 9.38711 38.2227 7.87488L37.9533 8.29608ZM33.6506 4.25C35.8054 4.25 37.4755 5.69522 37.4755 7.37779H37.9755C37.9755 5.33536 35.9896 3.75 33.6506 3.75V4.25ZM29.8256 7.37779C29.8256 5.69522 31.4958 4.25 33.6506 4.25V3.75C31.3115 3.75 29.3256 5.33536 29.3256 7.37779H29.8256ZM25.6427 15.0465C25.6427 12.2145 27.1208 9.72076 29.3477 8.2962L29.0783 7.87501C26.7144 9.38724 25.1427 12.0363 25.1427 15.0465H25.6427ZM25.6427 17.8352V15.0465H25.1427V17.8352H25.6427ZM26.1188 19.0271C25.8235 18.7158 25.6427 18.2963 25.6427 17.8352H25.1427C25.1427 18.4298 25.3764 18.971 25.756 19.3712L26.1188 19.0271ZM29.4959 24.3755C28.3424 23.4431 27.5272 22.1368 27.2009 20.699L26.7133 20.8097C27.0646 22.3577 27.9412 23.7617 29.1816 24.7644L29.4959 24.3755ZM30.5228 26.6514V26.3333H30.0228V26.6514H30.5228ZM29.8595 27.6311C30.2619 27.4702 30.5228 27.0849 30.5228 26.6514H30.0228C30.0228 26.8804 29.8864 27.0819 29.6738 27.1669L29.8595 27.6311ZM25.0792 29.5433L29.8595 27.6311L29.6738 27.1669L24.8935 29.0791L25.0792 29.5433ZM23.5513 31.8C23.5513 30.7998 24.1505 29.9147 25.0792 29.5433L24.8935 29.079C23.7749 29.5264 23.0513 30.5953 23.0513 31.8H23.5513ZM23.5513 35.2646V31.8H23.0513V35.2646H23.5513ZM23.6507 35.5045C23.587 35.4408 23.5513 35.3545 23.5513 35.2646H23.0513C23.0513 35.4872 23.1398 35.7007 23.2971 35.8581L23.6507 35.5045ZM23.8904 35.6037C23.8004 35.6037 23.7142 35.568 23.6507 35.5045L23.2972 35.8581C23.4545 36.0154 23.668 36.1037 23.8904 36.1037V35.6037ZM23.8907 35.6037H23.8904V36.1037H23.8907V35.6037ZM24.2484 41.5387V35.9614H23.7484V41.5387H24.2484ZM24.5876 41.8778C24.4003 41.8778 24.2484 41.726 24.2484 41.5387H23.7484C23.7484 42.0021 24.1241 42.3778 24.5876 42.3778V41.8778ZM24.9267 41.5387C24.9267 41.726 24.7749 41.8778 24.5876 41.8778V42.3778C25.051 42.3778 25.4267 42.0021 25.4267 41.5387H24.9267ZM24.9267 36.6586V41.5387H25.4267V36.6586H24.9267ZM27.0371 41.5387V36.6586H26.5371V41.5387H27.0371ZM27.3762 41.8778C27.1889 41.8778 27.0371 41.726 27.0371 41.5387H26.5371C26.5371 42.0021 26.9128 42.3778 27.3762 42.3778V41.8778ZM27.7154 41.5387C27.7154 41.726 27.5635 41.8778 27.3762 41.8778V42.3778C27.8397 42.3778 28.2154 42.0021 28.2154 41.5387H27.7154ZM27.7154 33.8699V41.5387H28.2154V33.8699H27.7154ZM27.3762 33.5308C27.5635 33.5308 27.7154 33.6826 27.7154 33.8699H28.2154C28.2154 33.4065 27.8397 33.0308 27.3762 33.0308V33.5308ZM27.0371 33.8699C27.0371 33.6826 27.1889 33.5308 27.3762 33.5308V33.0308C26.9128 33.0308 26.5371 33.4065 26.5371 33.8699H27.0371ZM24.5876 34.9251H25.9819V34.4251H24.5876V34.9251ZM24.5873 34.9251H24.5876V34.4251H24.5873V34.9251ZM24.2296 31.8V34.5674H24.7296V31.8H24.2296ZM25.3311 30.1731C24.6625 30.4405 24.2296 31.0799 24.2296 31.8H24.7296C24.7296 31.2844 25.038 30.8288 25.5168 30.6373L25.3311 30.1731ZM26.6589 29.642L25.3311 30.1731L25.5168 30.6373L26.8446 30.1062L26.6589 29.642ZM33.4989 32.7789C32.4232 32.2411 31.549 31.508 30.8732 30.7943L30.5101 31.1381C31.2151 31.8826 32.1349 32.6559 33.2753 33.2261L33.4989 32.7789ZM33.6506 32.8148C33.5986 32.8148 33.5467 32.8028 33.4989 32.7789L33.2753 33.2261C33.3934 33.2852 33.522 33.3148 33.6506 33.3148V32.8148ZM33.8022 32.7789C33.7544 32.8028 33.7025 32.8148 33.6506 32.8148V33.3148C33.7791 33.3148 33.9077 33.2852 34.0258 33.2261L33.8022 32.7789ZM36.4278 30.7945C35.752 31.5081 34.8779 32.2411 33.8022 32.7789L34.0258 33.2261C35.1662 32.656 36.0859 31.8827 36.7909 31.1383L36.4278 30.7945ZM41.9701 30.1731L40.6425 29.6421L40.4568 30.1063L41.7844 30.6374L41.9701 30.1731ZM43.0717 31.8001C43.0717 31.0801 42.6387 30.4406 41.9701 30.1731L41.7845 30.6374C42.2632 30.8289 42.5717 31.2845 42.5717 31.8001H43.0717ZM43.0717 34.5672V31.8001H42.5717V34.5672H43.0717ZM41.3193 34.9252H42.7136V34.4252H41.3193V34.9252ZM39.925 33.5309C40.1123 33.5309 40.2642 33.6827 40.2642 33.87H40.7642C40.7642 33.4066 40.3884 33.0309 39.925 33.0309V33.5309ZM39.5859 33.87C39.5859 33.6827 39.7377 33.5309 39.925 33.5309V33.0309C39.4616 33.0309 39.0859 33.4066 39.0859 33.87H39.5859ZM39.5859 41.5388V33.87H39.0859V41.5388H39.5859ZM39.925 41.8779C39.7377 41.8779 39.5859 41.7261 39.5859 41.5388H39.0859C39.0859 42.0022 39.4616 42.3779 39.925 42.3779V41.8779ZM40.2642 41.5388C40.2642 41.7261 40.1123 41.8779 39.925 41.8779V42.3779C40.3884 42.3779 40.7642 42.0022 40.7642 41.5388H40.2642ZM40.2642 36.6586V41.5388H40.7642V36.6586H40.2642ZM42.3745 41.5388V36.6586H41.8745V41.5388H42.3745ZM42.7136 41.8779C42.5263 41.8779 42.3745 41.7261 42.3745 41.5388H41.8745C41.8745 42.0022 42.2502 42.3779 42.7136 42.3779V41.8779ZM43.0528 41.5388C43.0528 41.7261 42.9009 41.8779 42.7136 41.8779V42.3779C43.1771 42.3779 43.5528 42.0022 43.5528 41.5388H43.0528ZM43.0528 35.9615V41.5388H43.5528V35.9615H43.0528ZM43.75 35.2643C43.75 35.4516 43.5981 35.6035 43.4108 35.6035V36.1035C43.8742 36.1035 44.25 35.7278 44.25 35.2643H43.75ZM43.75 31.8001V35.2643H44.25V31.8001H43.75ZM42.2221 29.5434C43.1509 29.9149 43.75 30.7999 43.75 31.8001L44.25 31.8001C44.25 30.5955 43.5264 29.5266 42.4078 29.0791L42.2221 29.5434ZM34.7027 5.06859C34.3731 4.97771 34.0188 4.92845 33.6507 4.92845V5.42845C33.9744 5.42845 34.2839 5.47178 34.5698 5.5506L34.7027 5.06859ZM33.6507 4.92845C33.2825 4.92845 32.9282 4.97771 32.5986 5.06859L32.7315 5.5506C33.0174 5.47178 33.327 5.42845 33.6507 5.42845V4.92845ZM27.8624 20.5491C28.1554 21.8401 28.887 23.0112 29.9224 23.8482L30.2367 23.4593C29.288 22.6925 28.618 21.6191 28.35 20.4384L27.8624 20.5491ZM27.7154 19.2297C27.7154 19.6748 27.7648 20.1187 27.8624 20.549L28.35 20.4384C28.2607 20.0448 28.2154 19.6379 28.2154 19.2297H27.7154ZM27.3762 18.8905C27.5635 18.8905 27.7154 19.0424 27.7154 19.2297H28.2154C28.2154 18.7662 27.8397 18.3905 27.3762 18.3905V18.8905ZM26.321 17.8353C26.321 18.4174 26.7942 18.8905 27.3762 18.8905V18.3905C27.0703 18.3905 26.821 18.1412 26.821 17.8353H26.321ZM27.3762 16.7802C26.7942 16.7802 26.321 17.2533 26.321 17.8353H26.821C26.821 17.5294 27.0703 17.2802 27.3762 17.2802V16.7802ZM28.8242 16.3842C28.3867 16.6266 27.9025 16.7802 27.3762 16.7802V17.2802C28.0032 17.2802 28.5701 17.0966 29.0665 16.8216L28.8242 16.3842ZM35.4438 15.7379C34.9282 15.6355 34.3978 15.5302 33.864 15.3946L33.7409 15.8792C34.2895 16.0185 34.8326 16.1263 35.3464 16.2284L35.4438 15.7379ZM35.4452 15.7382L35.4449 15.7382L35.3452 16.2281L35.3456 16.2282L35.4452 15.7382ZM39.5859 19.2297C39.5859 18.6186 39.4985 18.1159 39.3127 17.6995C39.1251 17.2793 38.8435 16.9603 38.4779 16.71C37.7658 16.2222 36.7245 15.9922 35.4441 15.738L35.3467 16.2284C36.6557 16.4883 37.5846 16.7042 38.1954 17.1225C38.4914 17.3252 38.7093 17.5744 38.8561 17.9033C39.0045 18.236 39.0859 18.6636 39.0859 19.2297H39.5859ZM39.4389 20.5491C39.5365 20.1188 39.5859 19.675 39.5859 19.2297H39.0859C39.0859 19.6381 39.0405 20.0448 38.9513 20.4385L39.4389 20.5491ZM37.3789 23.8482C38.4143 23.0113 39.1459 21.8402 39.4389 20.5491L38.9513 20.4385C38.6834 21.6192 38.0133 22.6925 37.0646 23.4593L37.3789 23.8482ZM33.6507 25.165C35.0232 25.165 36.3135 24.7094 37.3789 23.8482L37.0646 23.4593C36.0884 24.2484 34.909 24.665 33.6507 24.665V25.165ZM29.9224 23.8482C30.9878 24.7094 32.2781 25.165 33.6507 25.165V24.665C32.3923 24.665 31.2129 24.2484 30.2367 23.4593L29.9224 23.8482ZM31.4978 30.4593C31.7166 30.6827 31.9562 30.9071 32.2166 31.1245L32.537 30.7406C32.2907 30.535 32.0632 30.3221 31.855 30.1095L31.4978 30.4593ZM33.6507 25.8432C33.226 25.8432 32.8038 25.8015 32.3902 25.7205L32.2941 26.2112C32.7389 26.2982 33.1932 26.3432 33.6507 26.3432V25.8432ZM34.9111 25.7205C34.4975 25.8015 34.0753 25.8432 33.6507 25.8432V26.3432C34.1081 26.3432 34.5624 26.2982 35.0072 26.2112L34.9111 25.7205ZM35.0847 31.1245C35.3451 30.9071 35.5848 30.6826 35.8036 30.4592L35.4464 30.1094C35.2381 30.322 35.0107 30.5349 34.7643 30.7406L35.0847 31.1245ZM9.30348 30.0088L7.90916 27.2202L7.46195 27.4438L8.85627 30.2324L9.30348 30.0088ZM9.39209 30.3841C9.39209 30.2538 9.36177 30.1253 9.30344 30.0087L8.85631 30.2325C8.87983 30.2795 8.89209 30.3314 8.89209 30.3841H9.39209ZM9.39209 41.5386V30.3841H8.89209V41.5386H9.39209ZM8.55294 42.3778C9.01638 42.3778 9.39209 42.0021 9.39209 41.5386H8.89209C8.89209 41.7259 8.74024 41.8778 8.55294 41.8778V42.3778ZM7.71379 41.5386C7.71379 42.0021 8.0895 42.3778 8.55294 42.3778V41.8778C8.36565 41.8778 8.21379 41.7259 8.21379 41.5386H7.71379ZM7.71379 31.2314V41.5386H8.21379V31.2314H7.71379ZM6.40808 27.9707L7.42348 30.0016L7.8707 29.778L6.8553 27.7471L6.40808 27.9707ZM6.78338 26.8449C6.36882 27.0521 6.20076 27.5562 6.40809 27.9708L6.85528 27.7471C6.7715 27.5796 6.83941 27.3759 7.00693 27.2922L6.78338 26.8449ZM7.90918 27.2202C7.70196 26.8057 7.19788 26.6376 6.78333 26.8449L7.00698 27.2921C7.17451 27.2083 7.3782 27.2762 7.46194 27.4438L7.90918 27.2202ZM22.8715 26.8449C22.4569 26.6376 21.9528 26.8057 21.7456 27.2202L22.1929 27.4438C22.2766 27.2762 22.4803 27.2083 22.6478 27.2921L22.8715 26.8449ZM23.2467 27.9708C23.4541 27.5563 23.2859 27.0522 22.8715 26.8449L22.6478 27.2921C22.8154 27.376 22.8833 27.5797 22.7995 27.7471L23.2467 27.9708ZM22.2313 30.0016L23.2467 27.9707L22.7995 27.7471L21.7841 29.778L22.2313 30.0016ZM21.941 41.5386V31.2314H21.441V41.5386H21.941ZM21.1018 42.3778C21.5653 42.3778 21.941 42.0021 21.941 41.5386H21.441C21.441 41.7259 21.2891 41.8778 21.1018 41.8778V42.3778ZM20.2627 41.5386C20.2627 42.0021 20.6384 42.3778 21.1018 42.3778V41.8778C20.9145 41.8778 20.7627 41.7259 20.7627 41.5386H20.2627ZM20.2627 30.3841V41.5386H20.7627V30.3841H20.2627ZM20.3513 30.0088C20.293 30.1254 20.2627 30.2537 20.2627 30.3841H20.7627C20.7627 30.3314 20.7749 30.2796 20.7985 30.2324L20.3513 30.0088ZM21.7456 27.2202L20.3513 30.0088L20.7985 30.2324L22.1928 27.4438L21.7456 27.2202ZM24.0353 24.2531L21.2447 23.416L21.101 23.8949L23.8917 24.7321L24.0353 24.2531ZM26.1238 27.0602C26.1238 25.7568 25.2837 24.6277 24.0353 24.2531L23.8917 24.7321C24.9286 25.0431 25.6238 25.9776 25.6238 27.0602H26.1238ZM25.2847 27.8993C25.7481 27.8993 26.1238 27.5236 26.1238 27.0602H25.6238C25.6238 27.2475 25.472 27.3993 25.2847 27.3993V27.8993ZM24.4455 27.0602C24.4455 27.5236 24.8213 27.8993 25.2847 27.8993V27.3993C25.0974 27.3993 24.9455 27.2475 24.9455 27.0602H24.4455ZM23.553 25.8606C24.0877 26.021 24.4455 26.502 24.4455 27.0602H24.9455C24.9455 26.2812 24.4428 25.6056 23.6967 25.3817L23.553 25.8606ZM21.2784 25.1782L23.553 25.8606L23.6967 25.3817L21.422 24.6993L21.2784 25.1782ZM18.6932 28.2892L21.0597 25.331L20.6693 25.0187L18.3028 27.9768L18.6932 28.2892ZM17.4948 28.8679C17.9452 28.8679 18.3897 28.6686 18.6932 28.2892L18.3028 27.9768C18.0967 28.2344 17.7976 28.3679 17.4948 28.3679V28.8679ZM16.5718 28.5584C16.849 28.7663 17.1731 28.8679 17.4948 28.8679V28.3679C17.2789 28.3679 17.0606 28.3 16.8719 28.1584L16.5718 28.5584ZM15.6664 41.5386V29.0112H15.1664V41.5386H15.6664ZM14.8272 42.3777C15.2907 42.3777 15.6664 42.002 15.6664 41.5386H15.1664C15.1664 41.7259 15.0145 41.8777 14.8272 41.8777V42.3777ZM13.9881 41.5386C13.9881 42.002 14.3638 42.3777 14.8272 42.3777V41.8777C14.6399 41.8777 14.4881 41.7259 14.4881 41.5386H13.9881ZM13.9881 29.0112V41.5386H14.4881V29.0112H13.9881ZM12.1596 28.8679C12.4813 28.8679 12.8055 28.7663 13.0826 28.5584L12.7826 28.1584C12.5939 28.3 12.3755 28.3679 12.1596 28.3679V28.8679ZM10.9612 28.2892C11.2649 28.6687 11.7092 28.8679 12.1596 28.8679V28.3679C11.8569 28.3679 11.5578 28.2345 11.3516 27.9768L10.9612 28.2892ZM8.59472 25.331L10.9612 28.2892L11.3517 27.9768L8.98516 25.0187L8.59472 25.331ZM6.10158 25.8606L8.37631 25.1782L8.23263 24.6993L5.9579 25.3817L6.10158 25.8606ZM5.20906 27.0602C5.20906 26.502 5.56695 26.021 6.10159 25.8606L5.95789 25.3817C5.2118 25.6056 4.70906 26.2812 4.70906 27.0602H5.20906ZM5.20906 41.5387V27.0602H4.70906V41.5387H5.20906ZM4.36991 42.3779C4.83335 42.3779 5.20906 42.0022 5.20906 41.5387H4.70906C4.70906 41.726 4.55721 41.8779 4.36991 41.8779V42.3779ZM3.53076 41.5387C3.53076 42.0022 3.90647 42.3779 4.36991 42.3779V41.8779C4.18261 41.8779 4.03076 41.726 4.03076 41.5387H3.53076ZM3.53076 27.0602V41.5387H4.03076V27.0602H3.53076ZM5.61916 24.2531C4.37088 24.6277 3.53076 25.7568 3.53076 27.0602H4.03076C4.03076 25.9776 4.72605 25.0431 5.76288 24.732L5.61916 24.2531ZM8.40983 23.4159L5.61918 24.2531L5.76285 24.732L8.5535 23.8948L8.40983 23.4159ZM9.94609 22.2499L9.90777 22.3073L10.3238 22.5847L10.3621 22.5272L9.94609 22.2499ZM10.5238 21.8849C10.2882 21.9191 10.0782 22.0517 9.9461 22.2499L10.3621 22.5273C10.4155 22.4472 10.5004 22.3936 10.5957 22.3797L10.5238 21.8849ZM10.5024 21.5195V21.9429H11.0024V21.5195H10.5024ZM8.20699 18.3461C8.66753 19.5125 9.42782 20.5283 10.3917 21.2992L10.704 20.9087C9.80698 20.1913 9.1 19.2463 8.67206 18.1625L8.20699 18.3461ZM6.3194 14.3495C6.3194 14.5305 6.34109 14.7069 6.38211 14.876L6.86802 14.7581C6.83628 14.6273 6.8194 14.4905 6.8194 14.3495H6.3194ZM6.3504 13.9825C6.32996 14.1028 6.3194 14.2255 6.3194 14.3495H6.8194C6.8194 14.2539 6.82754 14.1592 6.84333 14.0662L6.3504 13.9825ZM7.01656 9.46939V11.4653H7.51656V9.46939H7.01656ZM12.7358 3.75012C9.58194 3.75012 7.01656 6.3155 7.01656 9.46939H7.51656C7.51656 6.59164 9.85808 4.25012 12.7358 4.25012V3.75012ZM18.3131 3.75012H12.7358V4.25012H18.3131V3.75012ZM20.5852 4.83156C20.0468 4.16482 19.2254 3.75012 18.3131 3.75012V4.25012C19.0708 4.25012 19.7505 4.59379 20.1962 5.14569L20.5852 4.83156ZM22.638 8.77223C22.638 7.97856 22.3726 7.21976 21.9062 6.60271L21.5073 6.90419C21.91 7.43702 22.138 8.09059 22.138 8.77223H22.638ZM22.638 11.4653V8.77223H22.138V11.4653H22.638ZM23.3351 14.3495C23.3351 14.2255 23.3246 14.1028 23.3041 13.9825L22.8112 14.0663C22.827 14.1592 22.8351 14.2539 22.8351 14.3495H23.3351ZM23.2724 14.876C23.3134 14.7069 23.3351 14.5305 23.3351 14.3495H22.8351C22.8351 14.4905 22.8183 14.6273 22.7865 14.7581L23.2724 14.876ZM19.263 21.2991C20.2268 20.5281 20.987 19.5124 21.4475 18.3461L20.9825 18.1624C20.5545 19.2462 19.8476 20.1912 18.9507 20.9086L19.263 21.2991ZM19.1522 21.943V21.5197H18.6522V21.943H19.1522ZM19.7085 22.25C19.5764 22.0518 19.3663 21.9191 19.1306 21.885L19.0589 22.3798C19.1542 22.3936 19.2391 22.4472 19.2924 22.5273L19.7085 22.25ZM19.7468 22.3074L19.7084 22.25L19.2924 22.5273L19.3307 22.5848L19.7468 22.3074ZM9.39202 15.7438C9.39202 15.2804 9.01631 14.9047 8.55287 14.9047V15.4047C8.74016 15.4047 8.89202 15.5565 8.89202 15.7438H9.39202ZM14.8272 21.1791C11.8304 21.1791 9.39202 18.7406 9.39202 15.7438H8.89202C8.89202 19.0167 11.5542 21.6791 14.8272 21.6791V21.1791ZM20.2625 15.7438C20.2625 18.7407 17.8241 21.1791 14.8272 21.1791V21.6791C18.1002 21.6791 20.7625 19.0168 20.7625 15.7438H20.2625ZM21.1017 14.9047C20.6382 14.9047 20.2625 15.2804 20.2625 15.7438H20.7625C20.7625 15.5565 20.9144 15.4047 21.1017 15.4047V14.9047ZM21.6568 14.3495C21.6568 14.6554 21.4076 14.9047 21.1017 14.9047V15.4047C21.6837 15.4047 22.1568 14.9316 22.1568 14.3495H21.6568ZM21.3768 13.8738C21.5554 13.9778 21.6568 14.1554 21.6568 14.3495H22.1568C22.1568 13.972 21.956 13.6325 21.6283 13.4417L21.3768 13.8738ZM20.9597 13.1486C20.9597 13.4473 21.1186 13.7236 21.3768 13.8738L21.6283 13.4417C21.5239 13.3809 21.4597 13.2693 21.4597 13.1486H20.9597ZM20.9597 8.77223V13.1486H21.4597V8.77223H20.9597ZM19.9592 7.08334C20.5781 7.43235 20.9597 8.08073 20.9597 8.77223H21.4597C21.4597 7.89612 20.9772 7.08341 20.2048 6.64783L19.9592 7.08334ZM19.5427 6.484C19.5828 6.73682 19.7362 6.95757 19.9592 7.08334L20.2048 6.64783C20.1147 6.59702 20.0527 6.50779 20.0365 6.40556L19.5427 6.484ZM18.3131 5.42842C18.9282 5.42842 19.4453 5.87065 19.5427 6.48397L20.0365 6.40558C19.9009 5.55137 19.1761 4.92842 18.3131 4.92842V5.42842ZM12.7358 5.42842H18.3131V4.92842H12.7358V5.42842ZM8.69486 9.46939C8.69486 7.24144 10.5079 5.42842 12.7358 5.42842V4.92842C10.2317 4.92842 8.19486 6.96529 8.19486 9.46939H8.69486ZM8.69486 12.2615V9.46939H8.19486V12.2615H8.69486ZM9.37555 12.116H8.55287V12.616H9.37555V12.116ZM9.2363 12.2302C9.24961 12.1636 9.30767 12.116 9.37555 12.116V12.616C9.54603 12.616 9.69316 12.4954 9.72659 12.3283L9.2363 12.2302ZM9.66497 10.0872L9.2363 12.2302L9.72659 12.3283L10.1553 10.1853L9.66497 10.0872ZM10.3717 9.07797C10.0061 9.29952 9.74894 9.66722 9.66496 10.0872L10.1553 10.1852C10.2119 9.90202 10.3856 9.65418 10.6309 9.50559L10.3717 9.07797ZM11.6068 8.91791C11.1908 8.79664 10.7409 8.85424 10.3717 9.07797L10.6309 9.50558C10.8789 9.35524 11.1839 9.31544 11.4669 9.39793L11.6068 8.91791ZM14.8272 9.32732C13.651 9.32732 12.5067 9.1804 11.6069 8.91792L11.4669 9.39792C12.4215 9.67637 13.6143 9.82732 14.8272 9.82732V9.32732ZM18.6869 8.69493C17.7351 9.09221 16.3288 9.32732 14.8272 9.32732V9.82732C16.3695 9.82732 17.847 9.58734 18.8795 9.15635L18.6869 8.69493ZM19.7846 9.14603C19.606 8.71834 19.1147 8.51662 18.6871 8.69489L18.8794 9.1564C19.0525 9.08424 19.2511 9.16593 19.3232 9.3387L19.7846 9.14603ZM19.3335 10.2437C19.7612 10.0652 19.9631 9.57379 19.7847 9.14611L19.3232 9.33863C19.3954 9.51157 19.3137 9.71019 19.1409 9.78236L19.3335 10.2437ZM14.8273 11.0057C16.5455 11.0057 18.1467 10.7392 19.3335 10.2438L19.1409 9.78235C18.033 10.2448 16.502 10.5057 14.8273 10.5057V11.0057ZM11.1369 10.5292C12.2104 10.8423 13.4865 11.0057 14.8273 11.0057V10.5057C13.5242 10.5057 12.2965 10.3466 11.277 10.0492L11.1369 10.5292ZM11.2414 10.5135C11.229 10.5209 11.2125 10.5282 11.1924 10.5317C11.1712 10.5353 11.1518 10.5335 11.1367 10.5291L11.2772 10.0492C11.1539 10.0131 11.0495 10.0452 10.9826 10.0856L11.2414 10.5135ZM11.3108 10.4162C11.3079 10.4308 11.3013 10.4497 11.288 10.4691C11.2746 10.4887 11.258 10.5034 11.2416 10.5133L10.9824 10.0858C10.8944 10.1391 10.8394 10.2236 10.8205 10.3183L11.3108 10.4162ZM10.8821 12.5594L11.3108 10.4163L10.8205 10.3182L10.3918 12.4613L10.8821 12.5594ZM9.37563 13.7943C10.1059 13.7943 10.7389 13.2754 10.8821 12.5594L10.3918 12.4613C10.2954 12.9436 9.86754 13.2943 9.37563 13.2943V13.7943ZM8.55287 13.7943H9.37563V13.2943H8.55287V13.7943ZM8.30248 13.8556C8.38125 13.8156 8.46697 13.7943 8.55287 13.7943V13.2943C8.38441 13.2943 8.22143 13.3359 8.07601 13.4098L8.30248 13.8556ZM8.32344 13.8439C8.32695 13.8414 8.32903 13.84 8.33092 13.8387L8.04757 13.4267C8.04279 13.43 8.03826 13.4332 8.03518 13.4354L8.32344 13.8439ZM8.27815 13.8736C8.29841 13.8618 8.31592 13.8492 8.32343 13.8439L8.03519 13.4354C8.03037 13.4388 8.02812 13.4404 8.02621 13.4416C8.02456 13.4428 8.02466 13.4426 8.02587 13.4419L8.27815 13.8736ZM7.9977 14.3495C7.9977 14.1554 8.09914 13.9778 8.27777 13.8738L8.02625 13.4417C7.69852 13.6325 7.4977 13.972 7.4977 14.3495H7.9977ZM8.55287 14.9047C8.24696 14.9047 7.9977 14.6554 7.9977 14.3495H7.4977C7.4977 14.9316 7.97081 15.4047 8.55287 15.4047V14.9047ZM12.0756 27.216C12.137 27.1699 12.2243 27.1814 12.2717 27.2407L11.8815 27.5532C12.0023 27.704 12.2205 27.7324 12.3758 27.6158L12.0756 27.216ZM11.2724 24.3311L12.1313 25.0468L12.4514 24.6627L11.5925 23.947L11.2724 24.3311ZM12.2718 27.2408L10.5279 25.0609L10.1375 25.3732L11.8814 27.5531L12.2718 27.2408ZM13.133 23.6969L12.2769 22.9836L11.9568 23.3677L12.8129 24.081L13.133 23.6969ZM17.3777 22.9836L16.5216 23.6969L16.8417 24.081L17.6978 23.3677L17.3777 22.9836ZM14.8273 22.8574C15.6018 22.8574 16.3479 22.7325 17.0467 22.5021L16.8902 22.0272C16.241 22.2412 15.5477 22.3574 14.8273 22.3574V22.8574ZM12.6079 22.5021C13.3067 22.7324 14.0528 22.8574 14.8273 22.8574V22.3574C14.1069 22.3574 13.4136 22.2412 12.7644 22.0272L12.6079 22.5021ZM17.3828 27.2408C17.4306 27.181 17.518 27.1702 17.5788 27.2158L17.279 27.616C17.4338 27.7319 17.6521 27.7046 17.7732 27.5531L17.3828 27.2408ZM19.1267 25.061L17.3828 27.2408L17.7732 27.5531L19.5171 25.3733L19.1267 25.061ZM17.5233 25.0469L18.3822 24.3312L18.0621 23.9471L17.2032 24.6628L17.5233 25.0469ZM19.5171 25.3733C19.7957 25.0251 19.8169 24.5367 19.5695 24.1657L19.1535 24.443C19.2801 24.6329 19.2692 24.8828 19.1267 25.061L19.5171 25.3733ZM12.7644 22.0272C12.2641 21.8623 11.6807 22.2072 11.6807 22.778H12.1807C12.1807 22.5912 12.3886 22.4298 12.6079 22.5021L12.7644 22.0272ZM17.974 22.778C17.974 22.2072 17.3905 21.8623 16.8902 22.0272L17.0467 22.5021C17.266 22.4298 17.474 22.5912 17.474 22.778H17.974ZM12.2769 22.9836C12.2159 22.9327 12.1807 22.8574 12.1807 22.778H11.6807C11.6807 23.0058 11.7818 23.2219 11.9568 23.3677L12.2769 22.9836ZM40.7642 36.6586C40.7642 36.352 41.0127 36.1035 41.3193 36.1035V35.6035C40.7366 35.6035 40.2642 36.0759 40.2642 36.6586H40.7642ZM18.6522 21.943C18.6522 22.214 18.8884 22.355 19.0588 22.3798L19.1308 21.885C19.1302 21.8849 19.1291 21.8846 19.1281 21.8842C19.1271 21.8837 19.1282 21.8839 19.1307 21.8863C19.1333 21.8887 19.1386 21.8944 19.1435 21.9045C19.1487 21.9153 19.1522 21.9287 19.1522 21.943H18.6522ZM18.9507 20.9086C18.7685 21.0543 18.6522 21.2763 18.6522 21.5197H19.1522C19.1522 21.4381 19.1915 21.3563 19.263 21.2991L18.9507 20.9086ZM12.3757 27.6159C13.3481 26.8866 13.3851 25.4408 12.4514 24.6627L12.1313 25.0468C12.8171 25.6183 12.7899 26.6802 12.0757 27.2159L12.3757 27.6159ZM20.1962 5.14569C20.6501 5.70772 21.0582 6.31003 21.5073 6.90419L21.9062 6.60271C21.4815 6.04077 21.0418 5.39697 20.5852 4.83156L20.1962 5.14569ZM11.0024 21.5195C11.0024 21.2762 10.8861 21.0544 10.704 20.9087L10.3917 21.2992C10.4631 21.3564 10.5024 21.4381 10.5024 21.5195H11.0024ZM10.5961 22.3797C10.7658 22.3547 11.0024 22.2141 11.0024 21.9429H10.5024C10.5024 21.9285 10.5059 21.9151 10.5111 21.9043C10.516 21.8942 10.5213 21.8885 10.5239 21.8861C10.5264 21.8838 10.5274 21.8836 10.5263 21.8841C10.5252 21.8846 10.5241 21.8849 10.5234 21.885L10.5961 22.3797ZM8.19486 12.2615C8.19486 12.4688 8.36681 12.616 8.55287 12.616V12.116C8.62149 12.116 8.69486 12.1716 8.69486 12.2615H8.19486ZM25.4267 36.6586C25.4267 36.352 25.6753 36.1034 25.9819 36.1034V35.6034C25.3991 35.6034 24.9267 36.0758 24.9267 36.6586H25.4267ZM14.4881 29.0112C14.4881 28.1328 13.4853 27.6314 12.7826 28.1584L13.0826 28.5584C13.4557 28.2786 13.9881 28.5448 13.9881 29.0112H14.4881ZM23.8907 36.1037C23.8121 36.1037 23.7484 36.04 23.7484 35.9614H24.2484C24.2484 35.7639 24.0883 35.6037 23.8907 35.6037V36.1037ZM16.8718 28.1584C16.1691 27.6314 15.1664 28.1328 15.1664 29.0112H15.6664C15.6664 28.5448 16.1988 28.2786 16.5718 28.5584L16.8718 28.1584ZM21.422 24.6993C21.2449 24.6462 21.0814 24.6955 20.961 24.7634C20.8412 24.8309 20.7418 24.9282 20.6695 25.0184L21.0595 25.3312C21.1054 25.274 21.1584 25.2261 21.2066 25.1989C21.2542 25.172 21.2744 25.177 21.2784 25.1782L21.422 24.6993ZM19.5695 24.1657C19.2319 23.6593 18.5297 23.5574 18.0621 23.9471L18.3822 24.3312C18.6214 24.1318 18.9808 24.1839 19.1535 24.443L19.5695 24.1657ZM21.2447 23.416C20.6316 23.2321 20.1018 22.84 19.7468 22.3074L19.3307 22.5848C19.7504 23.2142 20.3764 23.6775 21.101 23.8949L21.2447 23.416ZM10.0851 24.1656C9.83772 24.5366 9.85891 25.025 10.1375 25.3732L10.5279 25.0609C10.3854 24.8827 10.3745 24.6328 10.5011 24.443L10.0851 24.1656ZM22.138 11.4653C22.138 11.9502 22.2824 12.4091 22.432 12.8327C22.586 13.2689 22.7424 13.6612 22.8112 14.0663L23.3041 13.9825C23.226 13.5229 23.0475 13.0742 22.9034 12.6662C22.755 12.2458 22.638 11.8574 22.638 11.4653H22.138ZM17.6978 23.3677C17.8728 23.2218 17.974 23.0058 17.974 22.778H17.474C17.474 22.8574 17.4387 22.9327 17.3777 22.9836L17.6978 23.3677ZM21.7841 29.778C21.5585 30.2293 21.441 30.7269 21.441 31.2314H21.941C21.941 30.8045 22.0404 30.3834 22.2313 30.0016L21.7841 29.778ZM31.7012 26.6515C31.7012 26.3786 31.9809 26.1498 32.2941 26.2112L32.3902 25.7205C31.8143 25.6077 31.2012 26.0185 31.2012 26.6515H31.7012ZM29.0665 16.8216C30.4928 16.0315 32.2288 15.4951 33.7409 15.8792L33.864 15.3946C32.1688 14.964 30.2927 15.5707 28.8242 16.3842L29.0665 16.8216ZM34.5698 5.5506C34.8819 5.63665 34.9956 5.74837 35.0292 5.81317C35.0527 5.85876 35.0602 5.92886 34.9775 6.04012C34.7996 6.27956 34.3031 6.53879 33.6507 6.53879V7.03879C34.4031 7.03879 35.0766 6.74513 35.3788 6.33832C35.5362 6.12646 35.6113 5.8501 35.4732 5.58333C35.3451 5.33578 35.0678 5.16924 34.7027 5.06859L34.5698 5.5506ZM43.5528 35.9615C43.5528 36.0399 43.4892 36.1035 43.4108 36.1035V35.6035C43.2131 35.6035 43.0528 35.7638 43.0528 35.9615H43.5528ZM36.7909 31.1383C37.7613 30.1135 39.2043 29.6053 40.4568 30.1063L40.6425 29.6421C39.145 29.0431 37.4938 29.6688 36.4278 30.7945L36.7909 31.1383ZM8.67206 18.1625C8.43252 17.5558 8.03406 16.9725 7.68169 16.4206C7.32089 15.8554 7.00359 15.317 6.86802 14.7581L6.38211 14.876C6.5396 15.5253 6.90124 16.1273 7.26026 16.6896C7.6277 17.2652 7.98994 17.7964 8.20699 18.3461L8.67206 18.1625ZM42.5717 34.5672C42.5717 34.4887 42.6352 34.4252 42.7136 34.4252V34.9252C42.9114 34.9252 43.0717 34.7649 43.0717 34.5672H42.5717ZM35.0072 26.2112C35.3205 26.1498 35.6001 26.3786 35.6001 26.6515H36.1001C36.1001 26.0185 35.487 25.6077 34.9111 25.7205L35.0072 26.2112ZM26.8446 30.1062C28.097 29.6052 29.5398 30.1133 30.5101 31.1381L30.8732 30.7943C29.8073 29.6686 28.1562 29.043 26.6589 29.642L26.8446 30.1062ZM22.7865 14.7581C22.6509 15.317 22.3336 15.8555 21.9728 16.4206C21.6205 16.9725 21.222 17.5558 20.9825 18.1624L21.4475 18.3461C21.6646 17.7964 22.0268 17.2652 22.3943 16.6896C22.7533 16.1273 23.1149 15.5253 23.2724 14.876L22.7865 14.7581ZM25.756 19.3712C26.1913 19.8302 26.5934 20.2813 26.7133 20.8097L27.2009 20.699C27.0458 20.0158 26.5386 19.4697 26.1188 19.0271L25.756 19.3712ZM41.3193 36.1035C41.6259 36.1035 41.8745 36.352 41.8745 36.6586H42.3745C42.3745 36.0759 41.9021 35.6035 41.3193 35.6035V36.1035ZM8.98513 25.0186C8.91279 24.9282 8.81343 24.8309 8.69362 24.7634C8.57326 24.6955 8.40972 24.6461 8.23263 24.6993L8.37631 25.1782C8.38021 25.177 8.40037 25.172 8.44798 25.1989C8.49615 25.226 8.54903 25.2739 8.59475 25.331L8.98513 25.0186ZM26.5371 33.8699C26.5371 34.1765 26.2885 34.4251 25.9819 34.4251V34.9251C26.5647 34.9251 27.0371 34.4527 27.0371 33.8699H26.5371ZM25.9819 36.1034C26.2885 36.1034 26.5371 36.3519 26.5371 36.6586H27.0371C27.0371 36.0758 26.5647 35.6034 25.9819 35.6034V36.1034ZM32.2166 31.1245C33.0494 31.8196 34.2519 31.8196 35.0847 31.1245L34.7643 30.7406C34.117 31.2809 33.1843 31.2809 32.537 30.7406L32.2166 31.1245ZM24.5873 34.4251C24.6659 34.4251 24.7296 34.4888 24.7296 34.5674H24.2296C24.2296 34.7649 24.3897 34.9251 24.5873 34.9251V34.4251ZM6.84333 14.0662C6.91216 13.6612 7.06851 13.2689 7.22254 12.8327C7.37217 12.4091 7.51656 11.9502 7.51656 11.4653H7.01656C7.01656 11.8574 6.89957 12.2458 6.75108 12.6662C6.607 13.0742 6.4285 13.5229 6.3504 13.9825L6.84333 14.0662ZM8.21379 31.2314C8.21379 30.7269 8.09633 30.2293 7.8707 29.778L7.42348 30.0016C7.6144 30.3834 7.71379 30.8045 7.71379 31.2314H8.21379ZM41.3193 34.4252C41.0127 34.4252 40.7642 34.1766 40.7642 33.87H40.2642C40.2642 34.4528 40.7366 34.9252 41.3193 34.9252V34.4252ZM12.8129 24.081C13.9798 25.0535 15.6748 25.0535 16.8417 24.081L16.5216 23.6969C15.5401 24.5148 14.1145 24.5148 13.133 23.6969L12.8129 24.081ZM38.2227 7.87488C38.0699 7.7771 37.9755 7.58954 37.9755 7.37779H37.4755C37.4755 7.72867 37.6322 8.09068 37.9533 8.29608L38.2227 7.87488ZM33.6507 6.53879C32.9982 6.53879 32.5017 6.27956 32.3238 6.04012C32.2412 5.92886 32.2486 5.85875 32.2722 5.81317C32.3057 5.74837 32.4194 5.63665 32.7315 5.5506L32.5986 5.06859C32.2335 5.16924 31.9563 5.33578 31.8281 5.58333C31.69 5.8501 31.7651 6.12646 31.9225 6.33832C32.2248 6.74513 32.8982 7.03879 33.6507 7.03879V6.53879ZM37.2784 26.3334C37.2784 25.7318 37.6169 25.1708 38.1196 24.7643L37.8053 24.3755C37.2222 24.8469 36.7784 25.5387 36.7784 26.3334H37.2784ZM31.855 30.1095C31.5105 29.7577 31.4453 29.2517 31.4942 28.6173C31.5185 28.3031 31.5684 27.9793 31.6145 27.6437C31.6598 27.3137 31.7012 26.974 31.7012 26.6515H31.2012C31.2012 26.9365 31.1644 27.2462 31.1191 27.5756C31.0746 27.8994 31.0214 28.2452 30.9957 28.5789C30.9447 29.2401 30.9922 29.9431 31.4978 30.4593L31.855 30.1095ZM17.2032 24.6628C16.2695 25.4409 16.3065 26.8866 17.2789 27.6159L17.5789 27.2159C16.8647 26.6803 16.8375 25.6184 17.5233 25.0469L17.2032 24.6628ZM29.1816 24.7643C29.6844 25.1708 30.0228 25.7318 30.0228 26.3333H30.5228C30.5228 25.5387 30.079 24.8469 29.496 24.3755L29.1816 24.7643ZM11.5925 23.947C11.1249 23.5573 10.4227 23.6592 10.0851 24.1656L10.5011 24.443C10.6738 24.1838 11.0332 24.1317 11.2724 24.3311L11.5925 23.947ZM29.3256 7.37779C29.3256 7.5895 29.2312 7.77719 29.0783 7.87501L29.3477 8.2962C29.6688 8.09081 29.8256 7.72874 29.8256 7.37779H29.3256ZM8.5535 23.8948C9.27809 23.6775 9.90415 23.2141 10.3238 22.5847L9.90777 22.3073C9.55269 22.8399 9.02294 23.232 8.40983 23.4159L8.5535 23.8948ZM35.6001 26.6515C35.6001 26.974 35.6415 27.3137 35.6868 27.6437C35.733 27.9793 35.7828 28.303 35.8071 28.6172C35.856 29.2516 35.7909 29.7576 35.4464 30.1094L35.8036 30.4592C36.3092 29.943 36.3566 29.24 36.3056 28.5788C36.2799 28.2452 36.2267 27.8994 36.1822 27.5756C36.1369 27.2462 36.1001 26.9365 36.1001 26.6515H35.6001ZM27.3761 15.6017C27.2348 15.6017 27.0868 15.5519 26.9785 15.4698C26.872 15.3889 26.821 15.2921 26.821 15.1939H26.321C26.321 15.4853 26.4777 15.7174 26.6763 15.8681C26.8732 16.0175 27.1278 16.1017 27.3761 16.1017V15.6017Z" fill="#5B5B5B"/>
</svg>
