<svg width="12" height="12" viewBox="0 0 12 12" fill="none" xmlns="http://www.w3.org/2000/svg">
<path d="M1.91123 7.50798C2.34273 7.08002 2.88387 7.08002 3.31536 7.50798C3.64429 7.83337 3.97322 8.15876 4.29507 8.49122C4.38349 8.58318 4.45776 8.60086 4.56741 8.54074C4.77962 8.42402 5.00597 8.33206 5.21111 8.20474C6.16252 7.60701 6.96185 6.83598 7.66922 5.96591C8.01937 5.53442 8.33415 5.07463 8.54989 4.55471C8.59234 4.44861 8.5888 4.38141 8.50038 4.29652C8.17145 3.97821 7.8496 3.65282 7.52775 3.32743C7.07857 2.87471 7.07857 2.34418 7.53128 1.88793C7.78593 1.62974 8.04412 1.37155 8.30231 1.1169C8.56758 0.851635 8.8293 0.586372 9.0981 0.321109C9.53314 -0.103313 10.0707 -0.10685 10.5058 0.321109C10.8347 0.646498 11.1565 0.982499 11.489 1.30081C11.8003 1.59791 11.9594 1.95867 11.9912 2.38309C12.0408 3.06924 11.8745 3.72002 11.6376 4.35311C11.1495 5.66175 10.4103 6.82183 9.51545 7.88996C8.30585 9.33299 6.85574 10.4719 5.16159 11.2959C4.40117 11.6673 3.60892 11.9503 2.74947 11.9962C2.15881 12.0281 1.64243 11.8795 1.23216 11.4197C0.949213 11.105 0.634434 10.8185 0.333801 10.5178C-0.108304 10.0722 -0.111841 9.53105 0.326728 9.08895C0.857254 8.55842 1.38424 8.03497 1.91123 7.50798Z" fill="#C4C4C4"/>
</svg>
