<svg width="56" height="56" viewBox="0 0 56 56" fill="none" xmlns="http://www.w3.org/2000/svg">
<path d="M47.826 42.6087V5.04348C47.826 4.46773 47.3598 4 46.7825 4H9.21731C8.64003 4 8.17383 4.46773 8.17383 5.04348V42.6087C8.17383 43.0219 8.41585 43.3944 8.7939 43.5625L27.5765 51.9103C27.712 51.971 27.8547 52 27.9999 52C28.1451 52 28.2878 51.971 28.4233 51.9103L47.2059 43.5625C47.584 43.3944 47.826 43.0219 47.826 42.6087ZM45.739 41.9316L27.9999 49.8147L10.2608 41.9316V12.3478H45.739V41.9316ZM45.739 10.2609H10.2608V6.08696H45.739V10.2609Z" fill="#5B5B5B"/>
<path d="M27.9997 41.5652C34.3284 41.5652 39.478 36.4156 39.478 30.087C39.478 27.1746 38.378 24.52 36.5845 22.4937L39.3195 18.118C39.6253 17.6299 39.476 16.9859 38.9884 16.6802C38.4992 16.3755 37.8552 16.5238 37.5505 17.0124L35.0351 21.037C33.0887 19.5207 30.6512 18.6087 27.9997 18.6087C21.6711 18.6087 16.5215 23.7583 16.5215 30.087C16.5215 36.4156 21.6711 41.5652 27.9997 41.5652ZM27.9997 20.6957C30.2452 20.6957 32.3082 21.49 33.9269 22.8096L27.9717 32.3365L24.694 27.4207C24.3736 26.9418 23.7265 26.8103 23.2465 27.1318C22.7666 27.4513 22.6371 28.0994 22.9576 28.5793L27.1315 34.8402C27.3257 35.1301 27.6512 35.3044 27.9997 35.3044H28.0155C28.3702 35.2993 28.6968 35.1143 28.8848 34.8137L35.4218 24.3539C36.6512 25.9421 37.3911 27.9282 37.3911 30.087C37.3911 35.2656 33.1784 39.4783 27.9997 39.4783C22.8211 39.4783 18.6084 35.2656 18.6084 30.087C18.6084 24.9093 22.8211 20.6957 27.9997 20.6957Z" fill="#5B5B5B"/>
</svg>
