<svg width="56" height="56" viewBox="0 0 56 56" fill="none" xmlns="http://www.w3.org/2000/svg">
<g clip-path="url(#clip0)">
<path d="M33.881 17.1301V16.6301H33.381H29.1837C28.8653 16.6301 28.6074 16.3721 28.6074 16.0538V11.7489C28.6074 11.4306 28.8653 11.1727 29.1837 11.1727H33.381H33.881V10.6727V6.47534C33.881 6.15703 34.1389 5.89911 34.4572 5.89911H38.7621C39.0804 5.89911 39.3384 6.15703 39.3384 6.47534V10.6727V11.1727H39.8384H44.0357C44.354 11.1727 44.6119 11.4306 44.6119 11.7489V16.0538C44.6119 16.3721 44.354 16.6301 44.0357 16.6301H39.8384H39.3384V17.1301V21.3274C39.3384 21.6457 39.0804 21.9036 38.7621 21.9036H34.4572C34.1389 21.9036 33.881 21.6457 33.881 21.3274V17.1301ZM30.2599 12.3251H29.7599V12.8251V14.9776V15.4776H30.2599H34.4572C34.7755 15.4776 35.0334 15.7355 35.0334 16.0538V20.2511V20.7511H35.5334H37.6859H38.1859V20.2511V16.0538C38.1859 15.7355 38.4438 15.4776 38.7621 15.4776H42.9594H43.4594V14.9776V12.8251V12.3251H42.9594H38.7621C38.4438 12.3251 38.1859 12.0672 38.1859 11.7489V7.55158V7.05158H37.6859H35.5334H35.0334V7.55158V11.7489C35.0334 12.0672 34.7755 12.3251 34.4572 12.3251H30.2599Z" fill="#5B5B5B" stroke="#5B5B5B"/>
<path d="M5 16.5V23M5 52V40M5 40H51V52V29.5M5 40V29.5M51 25V29.5M51 29.5H17M5 29.5V23M5 29.5H17M5 23H14C15.6569 23 17 24.3431 17 26V29.5" stroke="#5B5B5B" stroke-width="2" stroke-linecap="round"/>
</g>
<defs>
<clipPath id="clip0">
<rect width="48" height="48" fill="white" transform="translate(4 4)"/>
</clipPath>
</defs>
</svg>
