<svg width="17" height="10" viewBox="0 0 17 10" fill="none" xmlns="http://www.w3.org/2000/svg">
<path fill-rule="evenodd" clip-rule="evenodd" d="M14.0832 6.29488C14.626 6.82483 15.199 7.32344 15.6858 7.90683C15.9008 8.16608 16.1044 8.43361 16.2602 8.73448C16.4809 9.16217 16.281 9.63282 15.8975 9.65836L13.5136 9.65729C12.8988 9.70831 12.4083 9.46078 11.9958 9.0404C11.6658 8.70421 11.3601 8.34641 11.0428 7.99888C10.9127 7.85683 10.7765 7.72318 10.6138 7.61753C10.2884 7.40629 10.0059 7.47097 9.81991 7.81038C9.6305 8.1556 9.58754 8.53786 9.56894 8.9226C9.5434 9.48395 9.37372 9.63153 8.80984 9.65723C7.60478 9.71406 6.46111 9.53175 5.39867 8.92384C4.462 8.38792 3.73564 7.63135 3.10343 6.77483C1.8725 5.10701 0.929856 3.27436 0.0826419 1.39035C-0.108059 0.965885 0.0314047 0.738033 0.499744 0.729968C1.27744 0.714861 2.05503 0.715936 2.83364 0.728893C3.14972 0.733517 3.35897 0.914809 3.48102 1.21342C3.90177 2.248 4.41662 3.23231 5.06286 4.14469C5.23496 4.3876 5.41045 4.6305 5.66034 4.80147C5.9368 4.99078 6.14729 4.92803 6.27734 4.62007C6.35987 4.4248 6.396 4.21447 6.4146 4.00533C6.47621 3.28581 6.48433 2.56752 6.37627 1.85052C6.30992 1.40304 6.05788 1.11336 5.61136 1.02868C5.38351 0.985509 5.41744 0.900723 5.52776 0.770668C5.71938 0.546364 5.89959 0.406738 6.25885 0.406738H8.95302C9.37716 0.490449 9.47136 0.680989 9.52942 1.10777L9.53173 4.10044C9.52711 4.26566 9.61426 4.75593 9.91185 4.86529C10.15 4.94314 10.307 4.7526 10.4499 4.60158C11.095 3.91694 11.5554 3.10785 11.9667 2.27004C12.1492 1.90165 12.3061 1.51906 12.4582 1.1368C12.5709 0.853142 12.7477 0.71357 13.0673 0.719753L15.6602 0.722065C15.7371 0.722065 15.8149 0.723194 15.8894 0.735936C16.3263 0.810399 16.4461 0.998359 16.3111 1.42503C16.0985 2.09445 15.6848 2.6523 15.2802 3.21274C14.8478 3.81108 14.3853 4.38894 13.9565 4.99083C13.5625 5.54046 13.5938 5.81751 14.0832 6.29488Z" fill="black"/>
</svg>
